<?xml version="1.0" encoding="UTF-8"?>
<svg version="1.1" xmlns="http://www.w3.org/2000/svg" width="1920" height="913">
<path d="M0 0 C633.6 0 1267.2 0 1920 0 C1920 301.29 1920 602.58 1920 913 C1286.4 913 652.8 913 0 913 C0 611.71 0 310.42 0 0 Z " fill="#000000" transform="translate(0,0)"/>
<path d="M0 0 C0.80449854 -0.00467997 1.60899709 -0.00935994 2.43787438 -0.01418173 C5.13095671 -0.02613827 7.8235308 -0.01667196 10.51661682 -0.00723267 C12.44848426 -0.01129811 14.38034938 -0.01663983 16.31221008 -0.02316284 C21.55807526 -0.0368464 26.80376354 -0.03153321 32.04963183 -0.02202559 C37.53879955 -0.01443332 43.02795206 -0.0214735 48.51712036 -0.02618408 C57.73654399 -0.03164335 66.95589554 -0.02444599 76.17530823 -0.01016235 C86.83343455 0.00615962 97.49138866 0.00087959 108.1495108 -0.01564157 C117.29953848 -0.02925731 126.44951433 -0.03117551 135.59954888 -0.02332556 C141.06475113 -0.01864892 146.52987245 -0.0180239 151.9950695 -0.02793503 C157.13411388 -0.03660347 162.27293637 -0.03058487 167.41195679 -0.01325226 C169.29774164 -0.00928658 171.18354517 -0.01042285 173.06932259 -0.01704025 C175.64428586 -0.0252427 178.21853895 -0.01494996 180.79345703 0 C181.91190078 -0.01003825 181.91190078 -0.01003825 183.05293936 -0.02027929 C187.75801192 0.0326762 190.96433805 0.89778395 194.96022034 3.38095093 C199.42864708 8.32268058 199.55051072 12.60762474 199.49147034 18.94345093 C199.49529724 19.85296509 199.49912415 20.76247925 199.50306702 21.69955444 C199.50577988 23.61582552 199.4984626 25.53213402 199.48170471 27.44833374 C199.46028569 30.37202964 199.48152718 33.29326844 199.50709534 36.21688843 C199.50445195 38.08408132 199.49932674 39.95127269 199.49147034 41.81845093 C199.49956726 42.68735962 199.50766418 43.55626831 199.51600647 44.45150757 C199.43254596 49.8863065 198.68657092 53.14689705 194.96022034 57.38095093 C190.75410533 60.60329913 187.00281655 60.80956672 181.88247681 60.76863098 C180.66960366 60.77670929 180.66960366 60.77670929 179.43222803 60.78495079 C176.72533911 60.79924762 174.01893802 60.79212246 171.31202698 60.78500366 C169.37030646 60.79070633 167.4285893 60.79767018 165.48687744 60.80580139 C160.21416329 60.82375929 154.94161531 60.82255946 149.66887975 60.81685901 C145.26766586 60.81377098 140.86648407 60.8198553 136.46527475 60.82589775 C126.08278485 60.83995 115.70037722 60.83837584 105.31788635 60.82699585 C94.60519282 60.81551344 83.8927496 60.82959086 73.18008906 60.85639232 C63.98334967 60.87854009 54.78668892 60.88518879 45.58992475 60.87931591 C40.09674457 60.87594299 34.60372486 60.87838373 29.11056709 60.89556694 C23.94521119 60.91101923 18.78022647 60.90709947 13.61488533 60.8882618 C11.71942212 60.88457119 9.8239315 60.88769809 7.9284935 60.89814758 C5.34021568 60.91132702 2.75317218 60.89983754 0.16494751 60.88215637 C-0.58457261 60.89176138 -1.33409272 60.90136639 -2.10632557 60.91126245 C-7.21207032 60.83953178 -10.11146109 59.60381432 -14.03977966 56.38095093 C-17.47158568 51.42979203 -17.4935113 46.84769065 -17.47337341 41.03720093 C-17.47861526 40.14988281 -17.48385712 39.2625647 -17.48925781 38.34835815 C-17.49565866 36.47918745 -17.4943662 34.60997636 -17.48582458 32.74081421 C-17.47730568 29.88965889 -17.50611645 27.04050286 -17.53782654 24.18954468 C-17.5394386 22.36793069 -17.53886092 20.54631318 -17.53587341 18.72470093 C-17.54710739 17.87766602 -17.55834137 17.0306311 -17.56991577 16.15792847 C-17.50686092 10.77372767 -16.72004739 7.58067004 -13.03977966 3.38095093 C-8.8420655 0.16630958 -5.10995782 -0.04572605 0 0 Z " fill="#155DFB" transform="translate(781.0397796630859,454.6190490722656)"/>
<path d="M0 0 C1.19301224 -0.00845947 2.38602448 -0.01691895 3.6151886 -0.02563477 C5.56579193 -0.01652573 5.56579193 -0.01652573 7.55580139 -0.00723267 C8.94580497 -0.01129994 10.33580532 -0.0166427 11.72579956 -0.02316284 C15.49446202 -0.03682514 19.26287774 -0.03154205 23.03154445 -0.02202559 C26.97921706 -0.01442181 30.92686878 -0.02147673 34.87454224 -0.02618408 C41.50466192 -0.03164019 48.13468131 -0.02445452 54.76478577 -0.01016235 C62.42369854 0.0061572 70.08237164 0.00088021 77.74127859 -0.01564157 C84.32233125 -0.02926863 90.90331188 -0.03116994 97.48437411 -0.02332556 C101.41257533 -0.01865487 105.34066402 -0.01800738 109.26885796 -0.02793503 C112.96336865 -0.03661999 116.65757134 -0.03055515 120.35204887 -0.01325226 C122.34994461 -0.00741194 124.34786648 -0.01629039 126.3457489 -0.02563477 C127.54158096 -0.01717529 128.73741302 -0.00871582 129.96948242 0 C131.0046144 0.00113108 132.03974638 0.00226215 133.10624599 0.00342751 C137.93193602 0.62267259 141.14656354 2.38377516 144.39002991 5.97079468 C146.56317713 10.43995256 146.62519357 14.03809644 146.57948303 18.94345093 C146.58330994 19.85296509 146.58713684 20.76247925 146.59107971 21.69955444 C146.59379258 23.61582552 146.58647529 25.53213402 146.56971741 27.44833374 C146.54829839 30.37202964 146.56953988 33.29326844 146.59510803 36.21688843 C146.59246464 38.08408132 146.58733944 39.95127269 146.57948303 41.81845093 C146.58757996 42.68735962 146.59567688 43.55626831 146.60401917 44.45150757 C146.52079553 49.87088166 145.82682527 53.20212415 142.04823303 57.38095093 C137.87686002 59.84988142 134.80385419 60.75728421 129.97621155 60.76863098 C128.1846312 60.78348793 128.1846312 60.78348793 126.3568573 60.79864502 C124.41164688 60.79189255 124.41164688 60.79189255 122.42713928 60.78500366 C121.03698682 60.7907107 119.64683904 60.79767625 118.25669861 60.80580139 C114.49224043 60.8237097 110.72801563 60.82256907 106.96352768 60.81685901 C103.8173496 60.81376427 100.67121616 60.81986266 97.52504444 60.82589775 C90.10207198 60.83993324 82.67921463 60.83838939 75.25624084 60.82699585 C67.60464136 60.81551075 59.95339221 60.8295989 52.30183887 60.85639232 C45.72500805 60.87855799 39.14828714 60.88518491 32.57142162 60.87931591 C28.64654331 60.87594776 24.72188966 60.87835202 20.79704285 60.89556694 C17.10655677 60.9110484 13.41658948 60.90706783 9.72612381 60.8882618 C7.73061057 60.88282682 5.73507396 60.89708017 3.73960876 60.91195679 C-7.24311092 60.82152916 -7.24311092 60.82152916 -11.95176697 56.38095093 C-15.38357298 51.42979203 -15.40549861 46.84769065 -15.38536072 41.03720093 C-15.39060257 40.14988281 -15.39584442 39.2625647 -15.40124512 38.34835815 C-15.40764596 36.47918745 -15.4063535 34.60997636 -15.39781189 32.74081421 C-15.38929299 29.88965889 -15.41810375 27.04050286 -15.44981384 24.18954468 C-15.45142591 22.36793069 -15.45084822 20.54631318 -15.44786072 18.72470093 C-15.4590947 17.87766602 -15.47032867 17.0306311 -15.48190308 16.15792847 C-15.41884822 10.77372767 -14.6320347 7.58067004 -10.95176697 3.38095093 C-7.19454573 0.66901267 -4.60572209 0.00503445 0 0 Z " fill="#FBC600" transform="translate(1009.9517669677734,454.6190490722656)"/>
<path d="M0 0 C6.6 0 13.2 0 20 0 C20.804375 2.8875 21.60875 5.775 22.4375 8.75 C22.68943115 9.65331055 22.9413623 10.55662109 23.20092773 11.48730469 C23.40145752 12.20821289 23.6019873 12.92912109 23.80859375 13.671875 C24.01282959 14.4050293 24.21706543 15.13818359 24.42749023 15.89355469 C24.9790563 17.92294147 25.49755982 19.95795396 26 22 C28.57764119 14.75805572 30.34048475 7.50733089 32 0 C38.6 0 45.2 0 52 0 C52 13.86 52 27.72 52 42 C47.71 42 43.42 42 39 42 C38.67 34.41 38.34 26.82 38 19 C36.02 26.59 34.04 34.18 32 42 C27.71 42 23.42 42 19 42 C17.02 34.74 15.04 27.48 13 20 C12.67 27.26 12.34 34.52 12 42 C8.04 42 4.08 42 0 42 C0 28.14 0 14.28 0 0 Z " fill="#F6D71E" transform="translate(974,338)"/>
<path d="M0 0 C4.62 0 9.24 0 14 0 C15.32 7.59 16.64 15.18 18 23 C20.97 11.615 20.97 11.615 24 0 C28.95 0 33.9 0 39 0 C41.25 6.75 41.25 6.75 42.0703125 10.0859375 C42.24433594 10.78847656 42.41835938 11.49101562 42.59765625 12.21484375 C42.77167969 12.92769531 42.94570313 13.64054687 43.125 14.375 C43.30675781 15.11105469 43.48851562 15.84710938 43.67578125 16.60546875 C44.11935562 18.40311223 44.55998266 20.20148254 45 22 C45.08564209 21.36908447 45.17128418 20.73816895 45.25952148 20.08813477 C45.64783714 17.24564319 46.04258081 14.40408131 46.4375 11.5625 C46.57220703 10.56927734 46.70691406 9.57605469 46.84570312 8.55273438 C46.97783203 7.60849609 47.10996094 6.66425781 47.24609375 5.69140625 C47.42676392 4.37958374 47.42676392 4.37958374 47.61108398 3.04125977 C48 1 48 1 49 0 C51.18639453 -0.07258946 53.37500389 -0.08373783 55.5625 -0.0625 C57.35880859 -0.04896484 57.35880859 -0.04896484 59.19140625 -0.03515625 C60.11824219 -0.02355469 61.04507813 -0.01195312 62 0 C59.68559566 10.02000936 57.28283993 20.0172624 54.8125 30 C54.41973877 31.60294922 54.41973877 31.60294922 54.01904297 33.23828125 C53.64803467 34.72908203 53.64803467 34.72908203 53.26953125 36.25 C53.04885986 37.14203125 52.82818848 38.0340625 52.60083008 38.953125 C52 41 52 41 51 42 C48.64686445 42.07271741 46.29166332 42.08370868 43.9375 42.0625 C42.64714844 42.05347656 41.35679687 42.04445313 40.02734375 42.03515625 C39.02832031 42.02355469 38.02929688 42.01195312 37 42 C36.15642037 38.940229 35.3269798 35.8767954 34.5 32.8125 C34.26152344 31.94818359 34.02304687 31.08386719 33.77734375 30.19335938 C33.55175781 29.35224609 33.32617188 28.51113281 33.09375 27.64453125 C32.88427734 26.87471924 32.67480469 26.10490723 32.45898438 25.31176758 C31.96461271 22.82176477 31.92166481 20.53218501 32 18 C31.34 18 30.68 18 30 18 C29.9175 19.010625 29.835 20.02125 29.75 21.0625 C29.21162667 25.44865922 28.13439313 29.67442634 27 33.9375 C26.82178711 34.61240479 26.64357422 35.28730957 26.45996094 35.98266602 C25.1297533 40.8702467 25.1297533 40.8702467 24 42 C21.46950598 42.07313567 18.96695163 42.09247527 16.4375 42.0625 C15.72658203 42.05798828 15.01566406 42.05347656 14.28320312 42.04882812 C12.52209987 42.03700864 10.76103964 42.01907263 9 42 C7.71085486 36.82399083 6.42933909 31.64617423 5.15478516 26.46655273 C4.72034322 24.70562123 4.2838392 22.94519711 3.84521484 21.18530273 C3.21426246 18.65219344 2.590805 16.11733814 1.96875 13.58203125 C1.77188599 12.79850784 1.57502197 12.01498444 1.37219238 11.2077179 C1.19200562 10.46732773 1.01181885 9.72693756 0.82617188 8.96411133 C0.66628784 8.31791336 0.50640381 7.67171539 0.3416748 7.00593567 C0 5 0 5 0 0 Z " fill="#F5F5F5" transform="translate(600,338)"/>
<path d="M0 0 C6.6 0 13.2 0 20 0 C21.98 8.58 23.96 17.16 26 26 C26.433125 23.751875 26.86625 21.50375 27.3125 19.1875 C28.58709864 12.69798832 30.17061835 6.35927905 32 0 C38.27 0 44.54 0 51 0 C51 13.86 51 27.72 51 42 C46.71 42 42.42 42 38 42 C37.505 31.605 37.505 31.605 37 21 C35.39567021 27.53604269 35.39567021 27.53604269 33.79907227 34.07397461 C33.59854248 34.88358643 33.3980127 35.69319824 33.19140625 36.52734375 C32.98717041 37.35999756 32.78293457 38.19265137 32.57250977 39.05053711 C32 41 32 41 31 42 C28.98035801 42.07244053 26.95832876 42.08377188 24.9375 42.0625 C23.83277344 42.05347656 22.72804688 42.04445313 21.58984375 42.03515625 C20.73519531 42.02355469 19.88054687 42.01195312 19 42 C16.06837771 33.7914576 14.06258027 25.46369147 12 17 C11.67 25.25 11.34 33.5 11 42 C7.37 42 3.74 42 0 42 C0 28.14 0 14.28 0 0 Z " fill="#F9DA1F" transform="translate(1126,338)"/>
<path d="M0 0 C3.0625 2 3.0625 2 5 4 C5.9590625 3.01 5.9590625 3.01 6.9375 2 C10.52720409 -0.34429655 12.64042376 -0.64618093 16.84375 -0.45703125 C20.38055373 0.29261737 21.9285312 2.15173041 24 5 C25.0377344 8.09641934 25.11655614 10.95234371 25.09765625 14.203125 C25.09443359 15.1828125 25.09121094 16.1625 25.08789062 17.171875 C25.07532227 18.69554687 25.07532227 18.69554687 25.0625 20.25 C25.05798828 21.28125 25.05347656 22.3125 25.04882812 23.375 C25.03706103 25.91669154 25.0191261 28.45835318 25 31 C20.71 31 16.42 31 12 31 C11.67 24.4 11.34 17.8 11 11 C9.68 10.67 8.36 10.34 7 10 C5.41596476 11.58403524 5.78025065 13.2771638 5.68359375 15.47265625 C5.62075195 16.82133789 5.62075195 16.82133789 5.55664062 18.19726562 C5.51732422 19.14279297 5.47800781 20.08832031 5.4375 21.0625 C5.37272461 22.4865918 5.37272461 22.4865918 5.30664062 23.93945312 C5.20020868 26.29278176 5.09956846 28.64637099 5 31 C0.71 31 -3.58 31 -8 31 C-8.495 21.1 -8.495 21.1 -9 11 C-10.32 11 -11.64 11 -13 11 C-13.33 17.6 -13.66 24.2 -14 31 C-18.29 31 -22.58 31 -27 31 C-27 21.1 -27 11.2 -27 1 C-22.71 1 -18.42 1 -14 1 C-13.67 1.66 -13.34 2.32 -13 3 C-12.525625 2.505 -12.05125 2.01 -11.5625 1.5 C-7.78520569 -0.71109911 -4.27744109 -0.72305499 0 0 Z " fill="#F8F8F8" transform="translate(812,349)"/>
<path d="M0 0 C3.57052209 1.93341549 5.69451966 4.08355899 7 8 C8.13106811 22.75951176 8.13106811 22.75951176 3 29 C0.0139161 31.57135002 -2.28305169 32.18584236 -6.125 32.3125 C-10 32 -10 32 -13 30 C-13.33 34.95 -13.66 39.9 -14 45 C-18.29 45 -22.58 45 -27 45 C-27 30.48 -27 15.96 -27 1 C-22.71 1 -18.42 1 -14 1 C-13.67 1.66 -13.34 2.32 -13 3 C-12.525625 2.505 -12.05125 2.01 -11.5625 1.5 C-7.75803834 -0.72700194 -4.30196692 -0.81127058 0 0 Z " fill="#F7D81F" transform="translate(1275,349)"/>
<path d="M0 0 C4.29 0 8.58 0 13 0 C13 5.28 13 10.56 13 16 C14.65 15.01 16.3 14.02 18 13 C22.13327601 12.4833405 24.21852832 12.53111699 27.8125 14.6875 C31.438857 18.5210774 32.25600525 22.11155109 32.1953125 27.30078125 C32.18886719 28.27724609 32.18242188 29.25371094 32.17578125 30.25976562 C32.15902344 31.26716797 32.14226562 32.27457031 32.125 33.3125 C32.11597656 34.33923828 32.10695313 35.36597656 32.09765625 36.42382812 C32.07416331 38.94931927 32.03829451 41.47468992 32 44 C27.71 44 23.42 44 19 44 C18.505 34.1 18.505 34.1 18 24 C16.68 23.67 15.36 23.34 14 23 C13.67 29.93 13.34 36.86 13 44 C8.71 44 4.42 44 0 44 C0 29.48 0 14.96 0 0 Z " fill="#F7D81F" transform="translate(1287,336)"/>
<path d="M0 0 C3.91122434 2.28455987 6.97144953 4.6859838 8.48828125 9.046875 C9.40868202 15.68840332 9.01143298 20.9769909 4.94921875 26.453125 C1.7771745 29.91353691 -0.89551743 30.88212674 -5.5390625 31.35546875 C-12.37874432 31.61401342 -17.16675943 31.48205401 -22.51171875 27.046875 C-26.23242828 22.27673457 -27.1748936 18.51039285 -26.890625 12.4765625 C-26.05713721 7.13192945 -23.76891249 4.09007832 -19.57421875 0.609375 C-13.70276842 -2.30104219 -6.06094719 -2.29995508 0 0 Z " fill="#F7F7F7" transform="translate(955.51171875,349.953125)"/>
<path d="M0 0 C4.01684726 2.93915653 6.95784056 6.06102168 8.5625 10.875 C8.93076224 16.49099916 8.77806007 20.05165989 5.5625 24.875 C1.02239968 29.4647189 -2.7756991 31.03290074 -9.1875 31.1875 C-14.93122628 31.12506819 -17.93200794 30.44184788 -22.4375 26.875 C-26.12382884 23.09414991 -26.7411138 19.99371131 -26.9375 14.875 C-26.7411138 9.75628869 -26.12382884 6.65585009 -22.4375 2.875 C-15.7898003 -2.38776226 -7.96289122 -2.60603713 0 0 Z " fill="#F8D91F" transform="translate(1209.4375,350.125)"/>
<path d="M0 0 C7.13022508 5.34766881 7.13022508 5.34766881 7.94921875 10.9453125 C8.11766238 16.0450886 7.98267322 19.83814641 5.8125 24.5 C1.08367399 29.35663212 -3.09661731 31.04319147 -9.75 31.1875 C-15.19960766 31.13342451 -18.45355283 30.81769212 -22.5 26.875 C-26.27057881 23.00519543 -26.86082204 19.67302679 -27.125 14.4375 C-26.9631486 8.98435293 -26.05896894 5.99063821 -22.203125 2.14453125 C-15.79562342 -2.63170272 -7.42991684 -2.38818756 0 0 Z " fill="#F8F8F8" transform="translate(772.5,350.125)"/>
<path d="M0 0 C12.21 0 24.42 0 37 0 C37 3.3 37 6.6 37 10 C33.04 10 29.08 10 25 10 C25 20.56 25 31.12 25 42 C20.71 42 16.42 42 12 42 C12 31.44 12 20.88 12 10 C8.04 10 4.08 10 0 10 C0 6.7 0 3.4 0 0 Z " fill="#FBFBFB" transform="translate(890,338)"/>
<path d="M0 0 C4.004793 2.0023965 6.6587028 4.17998877 9 8 C10 11 10 11 10 20 C4.06 20.33 -1.88 20.66 -8 21 C-3.80866878 23.09566561 -2.68835147 23.15337517 1.75 22.625 C2.73484375 22.51414062 3.7196875 22.40328125 4.734375 22.2890625 C5.48203125 22.19367188 6.2296875 22.09828125 7 22 C7.29296875 28.0546875 7.29296875 28.0546875 7 30 C3.2694077 32.48706153 1.13924196 32.33096694 -3.3125 32.375 C-4.60800781 32.40335937 -5.90351562 32.43171875 -7.23828125 32.4609375 C-12.52180753 31.81352722 -15.40180508 29.34584835 -19.375 26 C-21.9873523 21.17719576 -21.59642812 16.36057953 -21 11 C-17.54134098 0.80605761 -9.72574613 -1.00279586 0 0 Z " fill="#F7F7F7" transform="translate(685,349)"/>
<path d="M0 0 C4.43118719 2.13646525 7.2290203 4.37577522 9 9 C9.23555544 12.70607225 9.13451698 16.27836351 9 20 C3.06 20 -2.88 20 -9 20 C-6.36288103 23.32601764 -6.36288103 23.32601764 -3.08203125 23.07421875 C-2.00308594 22.94660156 -0.92414063 22.81898438 0.1875 22.6875 C1.81751953 22.50767578 1.81751953 22.50767578 3.48046875 22.32421875 C4.31191406 22.21722656 5.14335938 22.11023438 6 22 C6 24.97 6 27.94 6 31 C0.08428071 32.97190643 -7.31955401 33.02166227 -13.3359375 31.3515625 C-17.76486017 29.08875048 -20.472605 25.63673483 -22 21 C-22.86807892 15.33775797 -22.28000737 10.81067747 -19 6 C-12.98836846 0.08455457 -8.27167425 -0.84118721 0 0 Z " fill="#F7D81F" transform="translate(1053,349)"/>
<path d="M0 0 C4.02131013 2.01065507 6.68569682 4.15839012 9 8 C9.39237205 12.03881633 9.1326831 15.9310516 9 20 C0.585 20.495 0.585 20.495 -8 21 C-4.13209997 22.93395001 -2.8499541 23.23289353 1.25 23.125 C2.58804688 23.09792969 2.58804688 23.09792969 3.953125 23.0703125 C4.62859375 23.04710937 5.3040625 23.02390625 6 23 C6 25.64 6 28.28 6 31 C-0.46647078 32.93522118 -9.03603414 33.54604075 -15.125 30.3125 C-18.93907149 27.24465989 -20.75247807 24.78171189 -21.43359375 19.87890625 C-21.44692115 8.56394539 -21.44692115 8.56394539 -17 4 C-11.89289974 -0.73340999 -6.64672924 -0.98909661 0 0 Z " fill="#F9F9F9" transform="translate(862,349)"/>
<path d="M0 0 C1.64162109 -0.02513672 1.64162109 -0.02513672 3.31640625 -0.05078125 C7.61695233 0.44978294 10.13631019 1.90629983 13.06201172 5.06811523 C14.79346087 7.89332149 14.78307183 9.65666513 14.73046875 12.953125 C14.72080078 14.02304687 14.71113281 15.09296875 14.70117188 16.1953125 C14.67603516 17.30648438 14.65089844 18.41765625 14.625 19.5625 C14.60469727 21.25246094 14.60469727 21.25246094 14.58398438 22.9765625 C14.54866001 25.75541281 14.49485401 28.53401707 14.4375 31.3125 C10.8075 31.3125 7.1775 31.3125 3.4375 31.3125 C3.1075 30.3225 2.7775 29.3325 2.4375 28.3125 C1.756875 28.9725 1.07625 29.6325 0.375 30.3125 C-3.31124118 32.82228123 -5.17988151 32.93858836 -9.5625 32.3125 C-12.5 31 -12.5 31 -14.5625 28.3125 C-15.27057675 24.51882052 -15.25570306 21.10778678 -14.5625 17.3125 C-11.39631943 12.98538655 -6.90676474 12.49781111 -1.8671875 11.609375 C0.4375 11.3125 0.4375 11.3125 3.4375 11.3125 C2.31640434 9.68756099 2.31640434 9.68756099 0.4375 8.3125 C-4.67129409 7.61584626 -8.0561214 9.14943827 -12.5625 11.3125 C-12.5625 8.3425 -12.5625 5.3725 -12.5625 2.3125 C-8.24680355 0.67865413 -4.61098002 0.01633169 0 0 Z " fill="#F8D91F" transform="translate(1104.5625,348.6875)"/>
<path d="M0 0 C0 2.97 0 5.94 0 9 C2.31 9 4.62 9 7 9 C7 11.97 7 14.94 7 18 C4.69 18 2.38 18 0 18 C0.33 21.63 0.66 25.26 1 29 C3.94729537 30.15811388 3.94729537 30.15811388 7 30 C7 32.97 7 35.94 7 39 C3.0649579 40.96752105 -1.7105522 40.46422595 -6 40 C-9.00197464 38.19881522 -10.45166366 37.09667268 -12 34 C-12.07181821 31.28239892 -12.09299506 28.59140612 -12.0625 25.875 C-12.05798828 25.12089844 -12.05347656 24.36679687 -12.04882812 23.58984375 C-12.03703499 21.72652873 -12.01909942 19.86325445 -12 18 C-13.65 18 -15.3 18 -17 18 C-17 15.03 -17 12.06 -17 9 C-15.35 9 -13.7 9 -12 9 C-12 7.02 -12 5.04 -12 3 C-10.56445975 2.49440092 -9.1264798 1.9957251 -7.6875 1.5 C-6.88699219 1.2215625 -6.08648438 0.943125 -5.26171875 0.65625 C-3 0 -3 0 0 0 Z " fill="#F9D91F" transform="translate(1081,341)"/>
<path d="M0 0 C1 1 1 1 1.09765625 3.06640625 C1.08605469 3.89011719 1.07445312 4.71382813 1.0625 5.5625 C1.05347656 6.38878906 1.04445313 7.21507812 1.03515625 8.06640625 C1.02355469 8.70449219 1.01195312 9.34257812 1 10 C0.38511719 9.96519531 -0.22976563 9.93039062 -0.86328125 9.89453125 C-2.07564453 9.85392578 -2.07564453 9.85392578 -3.3125 9.8125 C-4.11300781 9.77769531 -4.91351562 9.74289062 -5.73828125 9.70703125 C-8.06083201 9.82073955 -8.06083201 9.82073955 -9.77734375 11.3203125 C-11.62132709 13.85358035 -11.25893062 15.95756519 -11 19 C-10.67 19.66 -10.34 20.32 -10 21 C-6.25801961 21.70603404 -2.81207261 22 1 22 C1 24.97 1 27.94 1 31 C-3.65067783 33.32533892 -9.93847299 32.40930344 -15 32 C-19.92362794 29.79285644 -22.69449645 26.87702674 -25 22 C-25.76497097 16.83254303 -25.80321342 11.8144092 -23.4375 7.0625 C-16.95535199 -1.08173724 -9.90353438 -0.80980643 0 0 Z " fill="#F7F7F7" transform="translate(741,349)"/>
<path d="M0 0 C3.96 0 7.92 0 12 0 C12 14.52 12 29.04 12 44 C8.04 44 4.08 44 0 44 C0 29.48 0 14.96 0 0 Z " fill="#FFFFFF" transform="translate(699,336)"/>
<path d="M0 0 C0 3.63 0 7.26 0 11 C-1.11375 11.12375 -2.2275 11.2475 -3.375 11.375 C-7.03103677 11.6465813 -7.03103677 11.6465813 -9 14 C-9.30675232 16.89967757 -9.51173371 19.71783178 -9.625 22.625 C-9.68300781 23.82769531 -9.68300781 23.82769531 -9.7421875 25.0546875 C-9.83653931 27.03607556 -9.91936215 29.01800645 -10 31 C-14.29 31 -18.58 31 -23 31 C-23 21.1 -23 11.2 -23 1 C-18.71 1 -14.42 1 -10 1 C-9.67 1.66 -9.34 2.32 -9 3 C-8.62875 2.505 -8.2575 2.01 -7.875 1.5 C-5.25305607 -0.59755514 -3.26157528 -0.21743835 0 0 Z " fill="#F8D91F" transform="translate(1245,349)"/>
<path d="M0 0 C2.64 0 5.28 0 8 0 C9.32 3.63 10.64 7.26 12 11 C13.66832577 8.49751135 14.62381674 6.58850813 15.625 3.8125 C15.88539062 3.09707031 16.14578125 2.38164062 16.4140625 1.64453125 C16.60742188 1.10183594 16.80078125 0.55914063 17 0 C19.64 0 22.28 0 25 0 C25 6.93 25 13.86 25 21 C23.35 21 21.7 21 20 21 C19.505 14.565 19.505 14.565 19 8 C17.68 11.96 16.36 15.92 15 20 C13.35 20.33 11.7 20.66 10 21 C8.68 17.7 7.36 14.4 6 11 C5.67 14.3 5.34 17.6 5 21 C3.35 21 1.7 21 0 21 C0 14.07 0 7.14 0 0 Z " fill="#EBCE1D" transform="translate(62,29)"/>
<path d="M0 0 C2.64 0 5.28 0 8 0 C9.32 3.96 10.64 7.92 12 12 C13.65 8.04 15.3 4.08 17 0 C19.31 0 21.62 0 24 0 C24 6.93 24 13.86 24 21 C22.35 21 20.7 21 19 21 C18.505 16.05 18.505 16.05 18 11 C16.68 14.3 15.36 17.6 14 21 C12.68 21 11.36 21 10 21 C8.68 17.7 7.36 14.4 6 11 C5.67 14.3 5.34 17.6 5 21 C3.35 21 1.7 21 0 21 C0 14.07 0 7.14 0 0 Z " fill="#ECCE1D" transform="translate(135,29)"/>
<path d="M0 0 C2.475 0.495 2.475 0.495 5 1 C5.33 0.67 5.66 0.34 6 0 C8.99894961 -0.26077823 11.18003295 -0.43731576 13.875 1 C15.68527863 4.21827312 15.64144893 7.45777649 15 11 C13.3125 13.5 13.3125 13.5 11 15 C8.3125 15.3125 8.3125 15.3125 6 15 C5.67 14.67 5.34 14.34 5 14 C4.67 16.64 4.34 19.28 4 22 C2.68 22 1.36 22 0 22 C0 14.74 0 7.48 0 0 Z " fill="#EED01D" transform="translate(194,35)"/>
<path d="M0 0 C2.5 1.625 2.5 1.625 4 4 C4.5625 6.9375 4.5625 6.9375 4 10 C1.39210172 13.63525215 -0.0702358 14.83397068 -4.5 15.625 C-8 15 -8 15 -11 12.9375 C-13 10 -13 10 -13.0625 6.375 C-12 3 -12 3 -10.4375 1.0625 C-6.90980637 -0.47521261 -3.78396047 -0.69010754 0 0 Z " fill="#EDCF1D" transform="translate(175,35)"/>
<path d="M0 0 C1.65 0 3.3 0 5 0 C5.33 2.97 5.66 5.94 6 9 C6.33 8.67 6.66 8.34 7 8 C10.5 8.3125 10.5 8.3125 14 9 C15.38226016 11.76452033 15.09525387 14.0461363 15.0625 17.125 C15.05347656 18.22070312 15.04445312 19.31640625 15.03515625 20.4453125 C15.02355469 21.28835937 15.01195312 22.13140625 15 23 C13.35 23 11.7 23 10 23 C9.67 19.7 9.34 16.4 9 13 C8.01 13 7.02 13 6 13 C5.67 16.3 5.34 19.6 5 23 C3.35 23 1.7 23 0 23 C0 15.41 0 7.82 0 0 Z " fill="#EFD11D" transform="translate(212,27)"/>
<path d="M0 0 C1.7421875 1.12890625 1.7421875 1.12890625 3 3 C3.29296875 5.91796875 3.29296875 5.91796875 3.1875 9.1875 C3.16042969 10.27417969 3.13335937 11.36085938 3.10546875 12.48046875 C3.07066406 13.31191406 3.03585938 14.14335938 3 15 C1.04196493 15.05389087 -0.91648909 15.09274217 -2.875 15.125 C-3.96554688 15.14820313 -5.05609375 15.17140625 -6.1796875 15.1953125 C-9 15 -9 15 -11 13 C-11.4375 10.5625 -11.4375 10.5625 -11 8 C-8.5 6.1875 -8.5 6.1875 -6 5 C-7.32 5 -8.64 5 -10 5 C-10 3.68 -10 2.36 -10 1 C-6.88450128 -0.55774936 -3.3955612 -0.56480622 0 0 Z " fill="#DCC11B" transform="translate(128,35)"/>
<path d="M0 0 C1.9375 1.125 1.9375 1.125 3 3 C3.1875 6.1875 3.1875 6.1875 3 9 C0.03 9 -2.94 9 -6 9 C-6 9.66 -6 10.32 -6 11 C-3.36 11 -0.72 11 2 11 C1.67 12.32 1.34 13.64 1 15 C-0.43655854 15.08131463 -1.8744483 15.13933559 -3.3125 15.1875 C-4.51326172 15.23970703 -4.51326172 15.23970703 -5.73828125 15.29296875 C-8 15 -8 15 -9.765625 13.734375 C-11.52285482 11.26535588 -11.47454665 8.90068052 -11.34375 5.94140625 C-11 4 -11 4 -9.4375 1.5 C-6.08965651 -0.56021138 -3.85985753 -0.49125459 0 0 Z " fill="#DEC21B" transform="translate(101,35)"/>
<path d="M0 0 C0 1.65 0 3.3 0 5 C0.99 5 1.98 5 3 5 C3 6.32 3 7.64 3 9 C2.01 9 1.02 9 0 9 C0 11.31 0 13.62 0 16 C0.99 16 1.98 16 3 16 C3 17.32 3 18.64 3 20 C0.125 20.125 0.125 20.125 -3 20 C-5 18 -5 18 -5.1953125 15.8359375 C-5.17210938 15.02382813 -5.14890625 14.21171875 -5.125 13.375 C-5.10695313 12.55773438 -5.08890625 11.74046875 -5.0703125 10.8984375 C-5.03550781 9.95871094 -5.03550781 9.95871094 -5 9 C-5.99 9 -6.98 9 -8 9 C-8 7.68 -8 6.36 -8 5 C-7.01 5 -6.02 5 -5 5 C-5 3.68 -5 2.36 -5 1 C-3 0 -3 0 0 0 Z " fill="#EED01D" transform="translate(113,30)"/>
<path d="M0 0 C1.23556641 0.01740234 1.23556641 0.01740234 2.49609375 0.03515625 C3.32238281 0.04417969 4.14867187 0.05320312 5 0.0625 C5.63808594 0.07410156 6.27617188 0.08570313 6.93359375 0.09765625 C7.55279029 10.07360044 7.55279029 10.07360044 5.30859375 13.78515625 C2.34013661 15.42561941 0.27493796 15.40141481 -3.06640625 15.09765625 C-2.73640625 14.10765625 -2.40640625 13.11765625 -2.06640625 12.09765625 C-0.74640625 12.09765625 0.57359375 12.09765625 1.93359375 12.09765625 C2.26359375 11.43765625 2.59359375 10.77765625 2.93359375 10.09765625 C2.14984375 10.13890625 1.36609375 10.18015625 0.55859375 10.22265625 C-2.06640625 10.09765625 -2.06640625 10.09765625 -4.06640625 8.09765625 C-3.37005618 0.15926541 -3.37005618 0.15926541 0 0 Z " fill="#1A1400" transform="translate(1107.06640625,483.90234375)"/>
<path d="M0 0 C6.8359375 -0.1953125 6.8359375 -0.1953125 9 0 C11 2 11 2 11.25 5 C11 8 11 8 9 10 C6.375 10.125 6.375 10.125 4 10 C4 11.65 4 13.3 4 15 C2.68 15 1.36 15 0 15 C0 10.05 0 5.1 0 0 Z " fill="#C2D4FE" transform="translate(838,484)"/>
<path d="M0 0 C2.01822917 0.06510417 4.03645833 0.13020833 6.0546875 0.1953125 C6.13576333 2.13212411 6.19391225 4.0699059 6.2421875 6.0078125 C6.27699219 7.08675781 6.31179688 8.16570312 6.34765625 9.27734375 C6.0546875 12.1953125 6.0546875 12.1953125 4.7734375 14.0703125 C1.99950362 15.88597831 -0.73302685 15.37713999 -3.9453125 15.1953125 C-3.9453125 14.2053125 -3.9453125 13.2153125 -3.9453125 12.1953125 C-1.6353125 12.1953125 0.6746875 12.1953125 3.0546875 12.1953125 C2.7246875 11.5353125 2.3946875 10.8753125 2.0546875 10.1953125 C1.2503125 10.2159375 0.4459375 10.2365625 -0.3828125 10.2578125 C-2.9453125 10.1953125 -2.9453125 10.1953125 -3.9453125 9.1953125 C-4.1328125 5.7578125 -4.1328125 5.7578125 -3.9453125 2.1953125 C-1.9453125 0.1953125 -1.9453125 0.1953125 0 0 Z " fill="#EEF3FE" transform="translate(931.9453125,483.8046875)"/>
<path d="M0 0 C3 0 6 0 9 0 C9.99 -0.04125 10.98 -0.0825 12 -0.125 C15 0 15 0 17 2 C17 3.32 17 4.64 17 6 C15.35 6.33 13.7 6.66 12 7 C13.32 7 14.64 7 16 7 C16 7.99 16 8.98 16 10 C12.625 10.125 12.625 10.125 9 10 C7 8 7 8 6.875 5.375 C6.91625 4.59125 6.9575 3.8075 7 3 C6.01 3.33 5.02 3.66 4 4 C3.67 5.98 3.34 7.96 3 10 C2.01 10 1.02 10 0 10 C0 6.7 0 3.4 0 0 Z " fill="#DAE5FE" transform="translate(851,484)"/>
<path d="M0 0 C2.47923801 -0.02685095 4.9581884 -0.04676547 7.4375 -0.0625 C8.14455078 -0.07087891 8.85160156 -0.07925781 9.58007812 -0.08789062 C11.38693559 -0.09653588 13.19387603 -0.05220011 15 0 C16 1 16 1 16.09765625 3.06640625 C16.08605469 3.89011719 16.07445312 4.71382813 16.0625 5.5625 C16.05347656 6.38878906 16.04445313 7.21507812 16.03515625 8.06640625 C16.02355469 8.70449219 16.01195312 9.34257812 16 10 C15.01 10 14.02 10 13 10 C12.67 7.69 12.34 5.38 12 3 C11.67 3 11.34 3 11 3 C10.67 5.31 10.34 7.62 10 10 C8.68 10 7.36 10 6 10 C6 7.36 6 4.72 6 2 C5.34 2 4.68 2 4 2 C4 4.64 4 7.28 4 10 C2.68 10 1.36 10 0 10 C0 6.7 0 3.4 0 0 Z " fill="#E6EEFE" transform="translate(820,484)"/>
<path d="M0 0 C2.47923801 -0.02685095 4.9581884 -0.04676547 7.4375 -0.0625 C8.14455078 -0.07087891 8.85160156 -0.07925781 9.58007812 -0.08789062 C11.38693559 -0.09653588 13.19387603 -0.05220011 15 0 C16 1 16 1 16.09765625 3.06640625 C16.08605469 3.89011719 16.07445312 4.71382813 16.0625 5.5625 C16.05347656 6.38878906 16.04445313 7.21507812 16.03515625 8.06640625 C16.02355469 8.70449219 16.01195312 9.34257812 16 10 C14.68 10 13.36 10 12 10 C12 7.36 12 4.72 12 2 C11.34 2 10.68 2 10 2 C10 4.64 10 7.28 10 10 C8.68 10 7.36 10 6 10 C6 7.36 6 4.72 6 2 C5.01 2.495 5.01 2.495 4 3 C3.59270772 5.32156597 3.25561323 7.6568787 3 10 C2.01 10 1.02 10 0 10 C0 6.7 0 3.4 0 0 Z " fill="#E6EDFE" transform="translate(899,484)"/>
<path d="M0 0 C2.05078125 0.03255208 4.1015625 0.06510417 6.15234375 0.09765625 C6.20640497 2.03485003 6.245164 3.97247546 6.27734375 5.91015625 C6.30054688 6.98910156 6.32375 8.06804687 6.34765625 9.1796875 C6.15234375 12.09765625 6.15234375 12.09765625 4.15234375 15.09765625 C0.52734375 15.28515625 0.52734375 15.28515625 -2.84765625 15.09765625 C-2.84765625 14.43765625 -2.84765625 13.77765625 -2.84765625 13.09765625 C-0.86765625 13.09765625 1.11234375 13.09765625 3.15234375 13.09765625 C3.15234375 12.10765625 3.15234375 11.11765625 3.15234375 10.09765625 C2.36859375 10.13890625 1.58484375 10.18015625 0.77734375 10.22265625 C-1.84765625 10.09765625 -1.84765625 10.09765625 -3.84765625 8.09765625 C-3.15194899 0.1665935 -3.15194899 0.1665935 0 0 Z " fill="#DADADA" transform="translate(819.84765625,423.90234375)"/>
<path d="M0 0 C0.99 0 1.98 0 3 0 C3 4.95 3 9.9 3 15 C-3.8359375 15.29296875 -3.8359375 15.29296875 -6 15 C-8 12 -8 12 -7.75 9.4375 C-7 7 -7 7 -5 5 C-3.68 5 -2.36 5 -1 5 C-0.67 3.35 -0.34 1.7 0 0 Z " fill="#030200" transform="translate(1044,479)"/>
<path d="M0 0 C0.99 0 1.98 0 3 0 C3 1.65 3 3.3 3 5 C3.78375 4.95875 4.5675 4.9175 5.375 4.875 C8 5 8 5 10 7 C10.25 10 10.25 10 10 13 C8 15 8 15 6.0546875 15.1953125 C4.03645833 15.13020833 2.01822917 15.06510417 0 15 C0 10.05 0 5.1 0 0 Z " fill="#C1C1C1" transform="translate(712,419)"/>
<path d="M0 0 C2.29141286 -0.05384521 4.58318188 -0.09272087 6.875 -0.125 C8.78925781 -0.15980469 8.78925781 -0.15980469 10.7421875 -0.1953125 C14 0 14 0 16 2 C16.26991906 4.68839385 16.08737357 7.29141936 16 10 C14.68 10 13.36 10 12 10 C12 7.36 12 4.72 12 2 C11.01 2.495 11.01 2.495 10 3 C9.59270772 5.32156597 9.25561323 7.6568787 9 10 C8.01 10 7.02 10 6 10 C6 7.36 6 4.72 6 2 C5.01 2.495 5.01 2.495 4 3 C3.59270772 5.32156597 3.25561323 7.6568787 3 10 C2.01 10 1.02 10 0 10 C0 6.7 0 3.4 0 0 Z " fill="#050400" transform="translate(1075,484)"/>
<path d="M0 0 C1.670625 0.061875 1.670625 0.061875 3.375 0.125 C3.42886629 2.24972576 3.46773071 4.37483652 3.5 6.5 C3.52320313 7.68335938 3.54640625 8.86671875 3.5703125 10.0859375 C3.375 13.125 3.375 13.125 1.375 15.125 C-2.25 15.25 -2.25 15.25 -5.625 15.125 C-5.625 14.465 -5.625 13.805 -5.625 13.125 C-4.1709375 12.939375 -4.1709375 12.939375 -2.6875 12.75 C-1.676875 12.54375 -0.66625 12.3375 0.375 12.125 C0.705 11.465 1.035 10.805 1.375 10.125 C0.59125 10.16625 -0.1925 10.2075 -1 10.25 C-3.625 10.125 -3.625 10.125 -5.625 8.125 C-5.875 5.125 -5.875 5.125 -5.625 2.125 C-3.625 0.125 -3.625 0.125 0 0 Z " fill="#CFCFCF" transform="translate(898.625,423.875)"/>
<path d="M0 0 C3.29714793 0.32971479 4.6226839 0.6226839 7 3 C7.35173852 6.79877599 7.52701444 9.14360153 5.5 12.4375 C5.005 12.953125 4.51 13.46875 4 14 C1.5625 13.625 1.5625 13.625 -1 13 C-2.17673198 10.64653604 -2.16623866 9.1193967 -2.1875 6.5 C-2.20167969 5.7059375 -2.21585938 4.911875 -2.23046875 4.09375 C-2 2 -2 2 0 0 Z " fill="#0A0801" transform="translate(1198,358)"/>
<path d="M0 0 C1.9375 0.8125 1.9375 0.8125 3.9375 2.8125 C4.13896402 6.506007 4.11103189 9.29190432 2.9375 12.8125 C-1.8125 13.9375 -1.8125 13.9375 -4.0625 12.8125 C-5.2470131 9.25896071 -5.32891894 6.54236522 -5.0625 2.8125 C-3.51413427 0.33511483 -2.93686999 -0.26698818 0 0 Z " fill="#080808" transform="translate(947.0625,358.1875)"/>
<path d="M0 0 C0.66 0 1.32 0 2 0 C2 4.95 2 9.9 2 15 C0.72125 15.061875 -0.5575 15.12375 -1.875 15.1875 C-2.59429688 15.22230469 -3.31359375 15.25710938 -4.0546875 15.29296875 C-4.69664063 15.19628906 -5.33859375 15.09960938 -6 15 C-8 12 -8 12 -7.6875 8.875 C-7 6 -7 6 -6 5 C-4.00041636 4.95919217 -1.99954746 4.95745644 0 5 C0 3.35 0 1.7 0 0 Z " fill="#C8C8C8" transform="translate(1293,419)"/>
<path d="M0 0 C0.66 0 1.32 0 2 0 C2 4.95 2 9.9 2 15 C0.72125 15.061875 -0.5575 15.12375 -1.875 15.1875 C-2.59429688 15.22230469 -3.31359375 15.25710937 -4.0546875 15.29296875 C-4.69664063 15.19628906 -5.33859375 15.09960938 -6 15 C-8 12 -8 12 -7.6875 8.875 C-7 6 -7 6 -6 5 C-4.00041636 4.95919217 -1.99954746 4.95745644 0 5 C0 3.35 0 1.7 0 0 Z " fill="#C8C8C8" transform="translate(1865,29)"/>
<path d="M0 0 C2.31 0.33 4.62 0.66 7 1 C6.67 1.556875 6.34 2.11375 6 2.6875 C4.37939198 6.43515604 4.72664719 9.17994156 6 13 C5.34 13 4.68 13 4 13 C4 15.97 4 18.94 4 22 C2.68 22 1.36 22 0 22 C0 14.74 0 7.48 0 0 Z " fill="#FDDD1F" transform="translate(194,35)"/>
<path d="M0 0 C4.55555556 0.55555556 4.55555556 0.55555556 6 2 C6.1245486 3.64230364 6.17568524 5.29052276 6.1875 6.9375 C6.20167969 7.83339844 6.21585938 8.72929687 6.23046875 9.65234375 C6 12 6 12 4 14 C-0.55555556 13.44444444 -0.55555556 13.44444444 -2 12 C-2.1245486 10.35769636 -2.17568524 8.70947724 -2.1875 7.0625 C-2.20167969 6.16660156 -2.21585938 5.27070313 -2.23046875 4.34765625 C-2 2 -2 2 0 0 Z " fill="#060606" transform="translate(761,358)"/>
<path d="M0 0 C1.875 0.75 1.875 0.75 2.875 1.75 C3.078125 3.96484375 3.078125 3.96484375 3.125 6.6875 C3.16367188 8.03134766 3.16367188 8.03134766 3.203125 9.40234375 C3.09484375 10.17707031 2.9865625 10.95179688 2.875 11.75 C-0.125 13.75 -0.125 13.75 -2.25 13.5 C-4.125 12.75 -4.125 12.75 -5.125 10.75 C-5.58477011 3.50862069 -5.58477011 3.50862069 -3.875 0.6875 C-2.125 -0.25 -2.125 -0.25 0 0 Z " fill="#060600" transform="translate(1266.125,358.25)"/>
<path d="M0 0 C6.15234375 -0.09765625 6.15234375 -0.09765625 8 0 C9 1 9 1 9.1875 4.4375 C9 8 9 8 7 10 C4.375 10.125 4.375 10.125 2 10 C2 11.65 2 13.3 2 15 C1.34 15 0.68 15 0 15 C0 10.05 0 5.1 0 0 Z " fill="#CCCCCC" transform="translate(1200,424)"/>
<path d="M0 0 C0.66 0 1.32 0 2 0 C2 4.95 2 9.9 2 15 C-4.15234375 15.09765625 -4.15234375 15.09765625 -6 15 C-7 14 -7 14 -7.1875 10.5625 C-7 7 -7 7 -5 5 C-2.375 4.875 -2.375 4.875 0 5 C0 3.35 0 1.7 0 0 Z " fill="#DDDDDD" transform="translate(796,419)"/>
<path d="M0 0 C0.66 0 1.32 0 2 0 C2 4.95 2 9.9 2 15 C-4.15234375 15.09765625 -4.15234375 15.09765625 -6 15 C-7 14 -7 14 -7.1875 10.5625 C-7 7 -7 7 -5 5 C-2.375 4.875 -2.375 4.875 0 5 C0 3.35 0 1.7 0 0 Z " fill="#DDDDDD" transform="translate(702,419)"/>
<path d="M0 0 C2.31 0 4.62 0 7 0 C9 2 9 2 9.25 5 C9 8 9 8 7 10 C4.375 10.125 4.375 10.125 2 10 C2 11.65 2 13.3 2 15 C1.34 15 0.68 15 0 15 C0 10.05 0 5.1 0 0 Z " fill="#D7D7D7" transform="translate(751,424)"/>
<path d="M0 0 C2.31 0 4.62 0 7 0 C9 2 9 2 9.25 5 C9 8 9 8 7 10 C4.375 10.125 4.375 10.125 2 10 C2 11.65 2 13.3 2 15 C1.34 15 0.68 15 0 15 C0 10.05 0 5.1 0 0 Z " fill="#D7D7D7" transform="translate(1762,34)"/>
<path d="M0 0 C3 0.25 3 0.25 5 2.25 C5.25 5.25 5.25 5.25 5 8.25 C3 10.25 3 10.25 0.0625 10.5625 C-3 10.25 -3 10.25 -4.9375 9.0625 C-6 7.25 -6 7.25 -5.8125 4.6875 C-4.61374094 1.09122283 -3.8124642 0.31770535 0 0 Z " fill="#EEF3FE" transform="translate(813,483.75)"/>
<path d="M0 0 C3 0.25 3 0.25 5 2.25 C5.25 5.25 5.25 5.25 5 8.25 C3 10.25 3 10.25 0 10.5 C-3 10.25 -3 10.25 -5 8.25 C-5.25 5.25 -5.25 5.25 -5 2.25 C-3 0.25 -3 0.25 0 0 Z " fill="#D7D7D7" transform="translate(1256,423.75)"/>
<path d="M0 0 C3 0.25 3 0.25 5 2.25 C5.25 5.25 5.25 5.25 5 8.25 C3 10.25 3 10.25 0 10.5 C-3 10.25 -3 10.25 -5 8.25 C-5.25 5.25 -5.25 5.25 -5 2.25 C-3 0.25 -3 0.25 0 0 Z " fill="#D7D7D7" transform="translate(1149,423.75)"/>
<path d="M0 0 C3 0.25 3 0.25 5 2.25 C5.25 5.25 5.25 5.25 5 8.25 C3 10.25 3 10.25 0 10.5 C-3 10.25 -3 10.25 -5 8.25 C-5.25 5.25 -5.25 5.25 -5 2.25 C-3 0.25 -3 0.25 0 0 Z " fill="#D3D3D3" transform="translate(1017,423.75)"/>
<path d="M0 0 C2.97 0 5.94 0 9 0 C9 0.66 9 1.32 9 2 C7.35 2 5.7 2 4 2 C4 3.32 4 4.64 4 6 C5.65 6 7.3 6 9 6 C9 6.66 9 7.32 9 8 C7.35 8 5.7 8 4 8 C4 9.32 4 10.64 4 12 C5.65 12 7.3 12 9 12 C9 12.66 9 13.32 9 14 C6.03 14 3.06 14 0 14 C0 9.38 0 4.76 0 0 Z " fill="#1B1500" transform="translate(1026,480)"/>
<path d="M0 0 C2.31243792 -0.02685412 4.6249627 -0.04632841 6.9375 -0.0625 C8.22527344 -0.07410156 9.51304688 -0.08570313 10.83984375 -0.09765625 C14 0 14 0 15 1 C15.07179964 2.51928038 15.08392007 4.04167482 15.0625 5.5625 C15.05347656 6.38878906 15.04445313 7.21507812 15.03515625 8.06640625 C15.02355469 8.70449219 15.01195312 9.34257812 15 10 C14.34 10 13.68 10 13 10 C13 7.36 13 4.72 13 2 C12.01 2.33 11.02 2.66 10 3 C9.67 5.31 9.34 7.62 9 10 C8.34 10 7.68 10 7 10 C6.67 7.69 6.34 5.38 6 3 C5.01 2.67 4.02 2.34 3 2 C3 4.64 3 7.28 3 10 C2.01 10 1.02 10 0 10 C0 6.7 0 3.4 0 0 Z " fill="#C7C7C7" transform="translate(1182,424)"/>
<path d="M0 0 C3 0.25 3 0.25 5 2.25 C4.625 5.875 4.625 5.875 4 9.25 C0.625 9.875 0.625 9.875 -3 10.25 C-5 8.25 -5 8.25 -5.25 5.25 C-4.90584825 1.120179 -4.129821 0.34415175 0 0 Z " fill="#CDCDCD" transform="translate(1029,423.75)"/>
<path d="M0 0 C3 0.25 3 0.25 5 2.25 C4.625 5.875 4.625 5.875 4 9.25 C0.625 9.875 0.625 9.875 -3 10.25 C-5 8.25 -5 8.25 -5.25 5.25 C-4.90584825 1.120179 -4.129821 0.34415175 0 0 Z " fill="#CDCDCD" transform="translate(772,423.75)"/>
<path d="M0 0 C2.31243792 -0.02685412 4.6249627 -0.04632841 6.9375 -0.0625 C8.22527344 -0.07410156 9.51304688 -0.08570313 10.83984375 -0.09765625 C14 0 14 0 15 1 C15.07179964 2.51928038 15.08392007 4.04167482 15.0625 5.5625 C15.05347656 6.38878906 15.04445313 7.21507812 15.03515625 8.06640625 C15.02355469 8.70449219 15.01195312 9.34257813 15 10 C14.34 10 13.68 10 13 10 C13 7.36 13 4.72 13 2 C12.01 2.33 11.02 2.66 10 3 C9.67 5.31 9.34 7.62 9 10 C8.34 10 7.68 10 7 10 C6.67 7.69 6.34 5.38 6 3 C5.01 2.67 4.02 2.34 3 2 C3 4.64 3 7.28 3 10 C2.01 10 1.02 10 0 10 C0 6.7 0 3.4 0 0 Z " fill="#C7C7C7" transform="translate(1744,34)"/>
<path d="M0 0 C2.31243792 -0.02685412 4.6249627 -0.04632841 6.9375 -0.0625 C8.22527344 -0.07410156 9.51304688 -0.08570313 10.83984375 -0.09765625 C14 0 14 0 15 1 C15.07179964 2.51928038 15.08392007 4.04167482 15.0625 5.5625 C15.05347656 6.38878906 15.04445313 7.21507812 15.03515625 8.06640625 C15.02355469 8.70449219 15.01195312 9.34257813 15 10 C14.34 10 13.68 10 13 10 C13 7.36 13 4.72 13 2 C12.01 2.33 11.02 2.66 10 3 C9.67 5.31 9.34 7.62 9 10 C8.34 10 7.68 10 7 10 C6.67 7.69 6.34 5.38 6 3 C5.01 2.67 4.02 2.34 3 2 C3 4.64 3 7.28 3 10 C2.01 10 1.02 10 0 10 C0 6.7 0 3.4 0 0 Z " fill="#C7C7C7" transform="translate(1652,34)"/>
<path d="M0 0 C2 2 2 2 2.25 5 C2 8 2 8 0 10 C-3 10.3125 -3 10.3125 -6 10 C-8 7 -8 7 -7.75 3.875 C-7.37875 2.451875 -7.37875 2.451875 -7 1 C-4.48718205 -0.25640898 -2.78302919 -0.20872719 0 0 Z " fill="#D1D1D1" transform="translate(1178,424)"/>
<path d="M0 0 C2 2 2 2 2.25 5 C2 8 2 8 0 10 C-3 10.3125 -3 10.3125 -6 10 C-8 7 -8 7 -7.75 3.875 C-7.37875 2.451875 -7.37875 2.451875 -7 1 C-4.48718205 -0.25640898 -2.78302919 -0.20872719 0 0 Z " fill="#D1D1D1" transform="translate(1740,34)"/>
<path d="M0 0 C2 2 2 2 2.25 5 C2 8 2 8 0 10 C-3 10.3125 -3 10.3125 -6 10 C-8 7 -8 7 -7.75 3.875 C-7.37875 2.451875 -7.37875 2.451875 -7 1 C-4.48718205 -0.25640898 -2.78302919 -0.20872719 0 0 Z " fill="#D1D1D1" transform="translate(1648,34)"/>
<path d="M0 0 C2.475 0.495 2.475 0.495 5 1 C7.72502965 0.62277985 7.72502965 0.62277985 10 0 C10 1.32 10 2.64 10 4 C8.35 4.66 6.7 5.32 5 6 C4.67 8.97 4.34 11.94 4 15 C2.68 15 1.36 15 0 15 C0 10.05 0 5.1 0 0 Z " fill="#F7D81F" transform="translate(182,35)"/>
<path d="M0 0 C0 0.99 0 1.98 0 3 C-1.2065625 2.9690625 -1.2065625 2.9690625 -2.4375 2.9375 C-4.93354885 2.70366379 -4.93354885 2.70366379 -6 4 C-6.04080783 5.99958364 -6.04254356 8.00045254 -6 10 C-3.92446352 10.5534764 -2.15634036 11 0 11 C0 11.99 0 12.98 0 14 C-7.32215357 14.36010591 -7.32215357 14.36010591 -10 12.9375 C-11.60856522 9.82090489 -11.42213381 7.43737531 -11 4 C-8.07275826 -0.56649711 -5.15004683 -0.39615745 0 0 Z " fill="#ECF2FE" transform="translate(806,480)"/>
<path d="M0 0 C5.75 -0.125 5.75 -0.125 8 1 C8 3.97 8 6.94 8 10 C5.36 10 2.72 10 0 10 C-0.33 8.35 -0.66 6.7 -1 5 C-0.01 4.34 0.98 3.68 2 3 C1.01 3 0.02 3 -1 3 C-0.67 2.01 -0.34 1.02 0 0 Z " fill="#DEE8FE" transform="translate(918,484)"/>
<path d="M0 0 C0.99 0.103125 1.98 0.20625 3 0.3125 C5 3.3125 5 3.3125 5 6.3125 C4.01 6.6425 3.02 6.9725 2 7.3125 C2.66 7.3125 3.32 7.3125 4 7.3125 C4 8.3025 4 9.2925 4 10.3125 C0.625 10.4375 0.625 10.4375 -3 10.3125 C-5 8.3125 -5 8.3125 -5.25 5.3125 C-4.90578549 1.18192588 -4.11441953 0.42858537 0 0 Z " fill="#DFE8FE" transform="translate(945,483.6875)"/>
<path d="M0 0 C0.99 0.33 1.98 0.66 3 1 C3.6875 3.0625 3.6875 3.0625 4 5 C4.66 3.35 5.32 1.7 6 0 C6.99 0 7.98 0 9 0 C9.66 0.99 10.32 1.98 11 3 C11.33 2.01 11.66 1.02 12 0 C12.66 0 13.32 0 14 0 C13.34 3.3 12.68 6.6 12 10 C11.01 10 10.02 10 9 10 C8.34 8.68 7.68 7.36 7 6 C6.34 7.32 5.68 8.64 5 10 C4.34 10 3.68 10 3 10 C2.49596232 8.70990357 1.99690074 7.41786211 1.5 6.125 C1.2215625 5.40570313 0.943125 4.68640625 0.65625 3.9453125 C0 2 0 2 0 0 Z " fill="#C3C3C3" transform="translate(1059,424)"/>
<path d="M0 0 C2.875 -0.1875 2.875 -0.1875 6 0 C8.4294516 3.6441774 8.16179575 5.71241272 8 10 C5.03 10 2.06 10 -1 10 C-1.33 8.68 -1.66 7.36 -2 6 C-1.34 5.34 -0.68 4.68 0 4 C1.32 4 2.64 4 4 4 C4 3.34 4 2.68 4 2 C2.35 2.33 0.7 2.66 -1 3 C-0.67 2.01 -0.34 1.02 0 0 Z " fill="#231B00" transform="translate(1094,484)"/>
<path d="M0 0 C-0.33 0.99 -0.66 1.98 -1 3 C-1.969375 2.979375 -2.93875 2.95875 -3.9375 2.9375 C-6.87465895 2.64381501 -6.87465895 2.64381501 -8 4 C-8.04092937 6.33297433 -8.04241723 8.66705225 -8 11 C-5.03 11.495 -5.03 11.495 -2 12 C-2 11.01 -2 10.02 -2 9 C-2.99 9 -3.98 9 -5 9 C-5 8.34 -5 7.68 -5 7 C-3.35 7 -1.7 7 0 7 C0.04254356 8.99954746 0.04080783 11.00041636 0 13 C-1 14 -1 14 -4.3125 14.375 C-8 14 -8 14 -10.5 11.875 C-12 9 -12 9 -11.9375 5.875 C-9.74349951 -0.85326815 -6.47034484 -0.31821368 0 0 Z " fill="#CBCBCB" transform="translate(620,420)"/>
<path d="M0 0 C2.14576637 -0.02685938 4.29162645 -0.04633088 6.4375 -0.0625 C7.63246094 -0.07410156 8.82742188 -0.08570313 10.05859375 -0.09765625 C13 0 13 0 14 1 C14.07179964 2.51928038 14.08392007 4.04167482 14.0625 5.5625 C14.05347656 6.38878906 14.04445313 7.21507812 14.03515625 8.06640625 C14.02355469 8.70449219 14.01195312 9.34257812 14 10 C13.67 10 13.34 10 13 10 C12.67 7.69 12.34 5.38 12 3 C11.01 2.67 10.02 2.34 9 2 C9 4.64 9 7.28 9 10 C8.01 10 7.02 10 6 10 C6 7.36 6 4.72 6 2 C5.01 2.33 4.02 2.66 3 3 C2.67 5.31 2.34 7.62 2 10 C1.34 10 0.68 10 0 10 C0 6.7 0 3.4 0 0 Z " fill="#D6D6D6" transform="translate(866,424)"/>
<path d="M0 0 C0.99 0 1.98 0 3 0 C3 1.65 3 3.3 3 5 C3.804375 4.979375 4.60875 4.95875 5.4375 4.9375 C8 5 8 5 9 6 C9.07179964 7.51928038 9.08392007 9.04167482 9.0625 10.5625 C9.05347656 11.38878906 9.04445313 12.21507812 9.03515625 13.06640625 C9.02355469 13.70449219 9.01195312 14.34257812 9 15 C8.34 15 7.68 15 7 15 C7 12.36 7 9.72 7 7 C5.68 7 4.36 7 3 7 C3 9.64 3 12.28 3 15 C2.01 15 1.02 15 0 15 C0 10.05 0 5.1 0 0 Z " fill="#C8C8C8" transform="translate(1103,419)"/>
<path d="M0 0 C0.99 0 1.98 0 3 0 C3 1.65 3 3.3 3 5 C3.804375 4.979375 4.60875 4.95875 5.4375 4.9375 C8 5 8 5 9 6 C9.07179964 7.51928038 9.08392007 9.04167482 9.0625 10.5625 C9.05347656 11.38878906 9.04445313 12.21507812 9.03515625 13.06640625 C9.02355469 13.70449219 9.01195312 14.34257812 9 15 C8.34 15 7.68 15 7 15 C7 12.36 7 9.72 7 7 C5.68 7 4.36 7 3 7 C3 9.64 3 12.28 3 15 C2.01 15 1.02 15 0 15 C0 10.05 0 5.1 0 0 Z " fill="#C8C8C8" transform="translate(953,419)"/>
<path d="M0 0 C2.5 0.25 2.5 0.25 4.5 2.25 C4.5 3.57 4.5 4.89 4.5 6.25 C2.85 6.58 1.2 6.91 -0.5 7.25 C1.15 7.25 2.8 7.25 4.5 7.25 C4.17 8.24 3.84 9.23 3.5 10.25 C0.625 10.375 0.625 10.375 -2.5 10.25 C-4.5 8.25 -4.5 8.25 -4.75 5.25 C-4.43608753 1.48305032 -3.83691092 0.38369109 0 0 Z " fill="#231C00" transform="translate(1120.5,483.75)"/>
<path d="M0 0 C0.66 0 1.32 0 2 0 C2 1.98 2 3.96 2 6 C4.31 6 6.62 6 9 6 C9 4.02 9 2.04 9 0 C9.66 0 10.32 0 11 0 C11 4.62 11 9.24 11 14 C10.34 14 9.68 14 9 14 C9 12.02 9 10.04 9 8 C6.69 8 4.38 8 2 8 C2 9.98 2 11.96 2 14 C1.34 14 0.68 14 0 14 C0 9.38 0 4.76 0 0 Z " fill="#E0E0E0" transform="translate(1627,30)"/>
<path d="M0 0 C2.5 0.25 2.5 0.25 4.5 2.25 C4.5 3.57 4.5 4.89 4.5 6.25 C2.52 6.58 0.54 6.91 -1.5 7.25 C1.47 7.745 1.47 7.745 4.5 8.25 C4.5 8.91 4.5 9.57 4.5 10.25 C1.125 10.375 1.125 10.375 -2.5 10.25 C-4.5 8.25 -4.5 8.25 -4.75 5.25 C-4.43608753 1.48305032 -3.83691092 0.38369109 0 0 Z " fill="#C1C1C1" transform="translate(1279.5,423.75)"/>
<path d="M0 0 C2.5 0.25 2.5 0.25 4.5 2.25 C4.5 3.57 4.5 4.89 4.5 6.25 C2.52 6.58 0.54 6.91 -1.5 7.25 C1.47 7.745 1.47 7.745 4.5 8.25 C4.5 8.91 4.5 9.57 4.5 10.25 C1.125 10.375 1.125 10.375 -2.5 10.25 C-4.5 8.25 -4.5 8.25 -4.75 5.25 C-4.43608753 1.48305032 -3.83691092 0.38369109 0 0 Z " fill="#C1C1C1" transform="translate(1118.5,423.75)"/>
<path d="M0 0 C2.5 0.25 2.5 0.25 4.5 2.25 C4.5 3.57 4.5 4.89 4.5 6.25 C2.52 6.58 0.54 6.91 -1.5 7.25 C1.47 7.745 1.47 7.745 4.5 8.25 C4.5 8.91 4.5 9.57 4.5 10.25 C1.125 10.375 1.125 10.375 -2.5 10.25 C-4.5 8.25 -4.5 8.25 -4.75 5.25 C-4.43608753 1.48305032 -3.83691092 0.38369109 0 0 Z " fill="#C1C1C1" transform="translate(968.5,423.75)"/>
<path d="M0 0 C2.5 0.25 2.5 0.25 4.5 2.25 C4.5 3.57 4.5 4.89 4.5 6.25 C2.52 6.58 0.54 6.91 -1.5 7.25 C1.47 7.745 1.47 7.745 4.5 8.25 C4.5 8.91 4.5 9.57 4.5 10.25 C1.125 10.375 1.125 10.375 -2.5 10.25 C-4.5 8.25 -4.5 8.25 -4.75 5.25 C-4.43608753 1.48305032 -3.83691092 0.38369109 0 0 Z " fill="#C1C1C1" transform="translate(688.5,423.75)"/>
<path d="M0 0 C2.5 0.25 2.5 0.25 4.5 2.25 C4.5 3.57 4.5 4.89 4.5 6.25 C2.19 6.25 -0.12 6.25 -2.5 6.25 C-2.5 6.91 -2.5 7.57 -2.5 8.25 C-0.52 8.25 1.46 8.25 3.5 8.25 C3.5 8.91 3.5 9.57 3.5 10.25 C0.625 10.375 0.625 10.375 -2.5 10.25 C-4.5 8.25 -4.5 8.25 -4.75 5.25 C-4.43608753 1.48305032 -3.83691092 0.38369109 0 0 Z " fill="#CCCCCC" transform="translate(1222.5,423.75)"/>
<path d="M0 0 C2.5 0.25 2.5 0.25 4.5 2.25 C4.5 3.57 4.5 4.89 4.5 6.25 C2.19 6.25 -0.12 6.25 -2.5 6.25 C-2.5 6.91 -2.5 7.57 -2.5 8.25 C-0.52 8.25 1.46 8.25 3.5 8.25 C3.5 8.91 3.5 9.57 3.5 10.25 C0.625 10.375 0.625 10.375 -2.5 10.25 C-4.5 8.25 -4.5 8.25 -4.75 5.25 C-4.43608753 1.48305032 -3.83691092 0.38369109 0 0 Z " fill="#CCCCCC" transform="translate(1048.5,423.75)"/>
<path d="M0 0 C2.5 0.25 2.5 0.25 4.5 2.25 C4.5 3.57 4.5 4.89 4.5 6.25 C2.19 6.25 -0.12 6.25 -2.5 6.25 C-2.5 6.91 -2.5 7.57 -2.5 8.25 C-0.52 8.25 1.46 8.25 3.5 8.25 C3.5 8.91 3.5 9.57 3.5 10.25 C0.625 10.375 0.625 10.375 -2.5 10.25 C-4.5 8.25 -4.5 8.25 -4.75 5.25 C-4.43608753 1.48305032 -3.83691092 0.38369109 0 0 Z " fill="#CCCCCC" transform="translate(1784.5,33.75)"/>
<path d="M0 0 C1.67542976 0.28604898 3.34385343 0.61781233 5 1 C5.33 4.3 5.66 7.6 6 11 C-0.875 9.125 -0.875 9.125 -2 8 C-1.28 1.28 -1.28 1.28 0 0 Z " fill="#1A1500" transform="translate(1105,484)"/>
<path d="M0 0 C1.99954746 -0.04254356 4.00041636 -0.04080783 6 0 C7 1 7 1 7.09765625 3.06640625 C7.08605469 3.89011719 7.07445312 4.71382813 7.0625 5.5625 C7.05347656 6.38878906 7.04445313 7.21507812 7.03515625 8.06640625 C7.02355469 8.70449219 7.01195312 9.34257812 7 10 C4.69 10 2.38 10 0 10 C-0.33 8.35 -0.66 6.7 -1 5 C0.98 4.67 2.96 4.34 5 4 C5 3.34 5 2.68 5 2 C3.02 2.33 1.04 2.66 -1 3 C-0.67 2.01 -0.34 1.02 0 0 Z " fill="#DCDCDC" transform="translate(884,424)"/>
<path d="M0 0 C2.31 0 4.62 0 7 0 C7 0.99 7 1.98 7 3 C5.68 2.67 4.36 2.34 3 2 C3 2.66 3 3.32 3 4 C4.32 4.33 5.64 4.66 7 5 C6.125 8.875 6.125 8.875 5 10 C3.00041636 10.04080783 0.99954746 10.04254356 -1 10 C-1 9.01 -1 8.02 -1 7 C0.32 7.33 1.64 7.66 3 8 C3 7.34 3 6.68 3 6 C1.68 5.67 0.36 5.34 -1 5 C-0.67 3.35 -0.34 1.7 0 0 Z " fill="#E3ECFE" transform="translate(870,484)"/>
<path d="M0 0 C2.4375 0.1875 2.4375 0.1875 3.4375 1.1875 C3.47813832 2.85367115 3.480221 4.52138095 3.4375 6.1875 C1.4575 6.1875 -0.5225 6.1875 -2.5625 6.1875 C-2.5625 6.8475 -2.5625 7.5075 -2.5625 8.1875 C-0.5825 8.1875 1.3975 8.1875 3.4375 8.1875 C3.4375 8.8475 3.4375 9.5075 3.4375 10.1875 C1.1275 10.1875 -1.1825 10.1875 -3.5625 10.1875 C-4.94375018 7.42499964 -4.75329306 5.24018901 -4.5625 2.1875 C-2.5625 0.1875 -2.5625 0.1875 0 0 Z " fill="#CCCCCC" transform="translate(1090.5625,423.8125)"/>
<path d="M0 0 C2.4375 0.1875 2.4375 0.1875 3.4375 1.1875 C3.47813832 2.85367115 3.480221 4.52138095 3.4375 6.1875 C1.4575 6.1875 -0.5225 6.1875 -2.5625 6.1875 C-2.5625 6.8475 -2.5625 7.5075 -2.5625 8.1875 C-0.5825 8.1875 1.3975 8.1875 3.4375 8.1875 C3.4375 8.8475 3.4375 9.5075 3.4375 10.1875 C1.1275 10.1875 -1.1825 10.1875 -3.5625 10.1875 C-4.94375018 7.42499964 -4.75329306 5.24018901 -4.5625 2.1875 C-2.5625 0.1875 -2.5625 0.1875 0 0 Z " fill="#CCCCCC" transform="translate(909.5625,423.8125)"/>
<path d="M0 0 C1.99954746 -0.04254356 4.00041636 -0.04080783 6 0 C7 1 7 1 7.09765625 3.06640625 C7.08605469 3.89011719 7.07445312 4.71382813 7.0625 5.5625 C7.05347656 6.38878906 7.04445313 7.21507812 7.03515625 8.06640625 C7.02355469 8.70449219 7.01195312 9.34257812 7 10 C4.69 10 2.38 10 0 10 C-0.625 8.125 -0.625 8.125 -1 6 C-0.34 5.34 0.32 4.68 1 4 C2.32 4 3.64 4 5 4 C5 3.34 5 2.68 5 2 C3.35 2.33 1.7 2.66 0 3 C0 2.01 0 1.02 0 0 Z " fill="#9D9D9D" transform="translate(661,424)"/>
<path d="M0 0 C2.64 0 5.28 0 8 0 C8 0.66 8 1.32 8 2 C6.02 2 4.04 2 2 2 C2 3.32 2 4.64 2 6 C3.65 6 5.3 6 7 6 C7 6.66 7 7.32 7 8 C5.35 8 3.7 8 2 8 C2 9.32 2 10.64 2 12 C3.98 12 5.96 12 8 12 C8 12.66 8 13.32 8 14 C5.36 14 2.72 14 0 14 C0 9.38 0 4.76 0 0 Z " fill="#DCDCDC" transform="translate(1848,30)"/>
<path d="M0 0 C1.66611905 -0.042721 3.33382885 -0.04063832 5 0 C6 1 6 1 6.09765625 3.06640625 C6.08605469 3.89011719 6.07445312 4.71382813 6.0625 5.5625 C6.05347656 6.38878906 6.04445313 7.21507812 6.03515625 8.06640625 C6.02355469 8.70449219 6.01195312 9.34257812 6 10 C3.69 10 1.38 10 -1 10 C-1.625 8.125 -1.625 8.125 -2 6 C-1.34 5.34 -0.68 4.68 0 4 C1.32 4 2.64 4 4 4 C4 3.34 4 2.68 4 2 C2.35 2.33 0.7 2.66 -1 3 C-0.67 2.01 -0.34 1.02 0 0 Z " fill="#9A9A9A" transform="translate(780,424)"/>
<path d="M0 0 C1.4540625 0.0309375 1.4540625 0.0309375 2.9375 0.0625 C3.2675 1.7125 3.5975 3.3625 3.9375 5.0625 C1.6275 5.0625 -0.6825 5.0625 -3.0625 5.0625 C-2.7325 5.7225 -2.4025 6.3825 -2.0625 7.0625 C0.96684491 7.72022428 0.96684491 7.72022428 3.9375 8.0625 C3.9375 8.7225 3.9375 9.3825 3.9375 10.0625 C0.5625 10.25 0.5625 10.25 -3.0625 10.0625 C-5.0625 7.0625 -5.0625 7.0625 -4.75 3.9375 C-3.82710098 0.0781041 -3.82710098 0.0781041 0 0 Z " fill="#D5D5D5" transform="translate(627.0625,423.9375)"/>
<path d="M0 0 C1.4540625 0.0309375 1.4540625 0.0309375 2.9375 0.0625 C3.2675 1.7125 3.5975 3.3625 3.9375 5.0625 C1.6275 5.0625 -0.6825 5.0625 -3.0625 5.0625 C-2.7325 5.7225 -2.4025 6.3825 -2.0625 7.0625 C0.96684491 7.72022428 0.96684491 7.72022428 3.9375 8.0625 C3.9375 8.7225 3.9375 9.3825 3.9375 10.0625 C0.5625 10.25 0.5625 10.25 -3.0625 10.0625 C-5.0625 7.0625 -5.0625 7.0625 -4.75 3.9375 C-3.82710098 0.0781041 -3.82710098 0.0781041 0 0 Z " fill="#D5D5D5" transform="translate(1674.0625,33.9375)"/>
<path d="M0 0 C0.99 0 1.98 0 3 0 C3.08107583 1.93681161 3.13922475 3.8745934 3.1875 5.8125 C3.22230469 6.89144531 3.25710938 7.97039062 3.29296875 9.08203125 C3 12 3 12 1.71875 13.875 C-1.05518388 15.69066581 -3.78771435 15.18182749 -7 15 C-7 14.01 -7 13.02 -7 12 C-4.69 12 -2.38 12 0 12 C-0.08378906 11.21753906 -0.16757812 10.43507813 -0.25390625 9.62890625 C-0.40666016 8.11103516 -0.40666016 8.11103516 -0.5625 6.5625 C-0.66691406 5.55316406 -0.77132812 4.54382813 -0.87890625 3.50390625 C-0.91886719 2.67761719 -0.95882812 1.85132813 -1 1 C-0.67 0.67 -0.34 0.34 0 0 Z " fill="#F2F6FE" transform="translate(935,484)"/>
<path d="M0 0 C0.66 0 1.32 0 2 0 C2.33 1.65 2.66 3.3 3 5 C4.65 5 6.3 5 8 5 C9.60725635 8.21451269 9.05748185 11.43612536 9 15 C8.34 15 7.68 15 7 15 C6.67 12.69 6.34 10.38 6 8 C5.01 8 4.02 8 3 8 C2.67 10.31 2.34 12.62 2 15 C1.34 15 0.68 15 0 15 C0 10.05 0 5.1 0 0 Z " fill="#E3E3E3" transform="translate(1001,419)"/>
<path d="M0 0 C0.66 0 1.32 0 2 0 C2.33 1.65 2.66 3.3 3 5 C3.804375 5.144375 4.60875 5.28875 5.4375 5.4375 C8 6 8 6 9 7 C9.14115161 9.67058851 9.04247107 12.32432238 9 15 C8.34 15 7.68 15 7 15 C6.67 12.69 6.34 10.38 6 8 C5.01 8 4.02 8 3 8 C2.67 10.31 2.34 12.62 2 15 C1.34 15 0.68 15 0 15 C0 10.05 0 5.1 0 0 Z " fill="#E0E0E0" transform="translate(1075,419)"/>
<path d="M0 0 C1.98 0 3.96 0 6 0 C5.67 0.99 5.34 1.98 5 3 C4.01 2.67 3.02 2.34 2 2 C2 2.66 2 3.32 2 4 C3.65 4.33 5.3 4.66 7 5 C7 6.32 7 7.64 7 9 C4.29120665 10.35439668 1.99066732 10.06501451 -1 10 C-0.67 9.01 -0.34 8.02 0 7 C0.99 7.33 1.98 7.66 3 8 C3 7.34 3 6.68 3 6 C1.68 5.67 0.36 5.34 -1 5 C-0.67 3.35 -0.34 1.7 0 0 Z " fill="#EAF0FE" transform="translate(879,484)"/>
<path d="M0 0 C0.66 0 1.32 0 2 0 C2 2.64 2 5.28 2 8 C3.32 8 4.64 8 6 8 C6 5.36 6 2.72 6 0 C6.99 0 7.98 0 9 0 C9 3.3 9 6.6 9 10 C2.84765625 10.09765625 2.84765625 10.09765625 1 10 C0 9 0 9 -0.09765625 6.93359375 C-0.08605469 6.10988281 -0.07445312 5.28617187 -0.0625 4.4375 C-0.05347656 3.61121094 -0.04445313 2.78492188 -0.03515625 1.93359375 C-0.02355469 1.29550781 -0.01195312 0.65742188 0 0 Z " fill="#BBBBBB" transform="translate(739,424)"/>
<path d="M0 0 C6.15234375 -0.09765625 6.15234375 -0.09765625 8 0 C9 1 9 1 9.09765625 3.06640625 C9.08605469 3.89011719 9.07445312 4.71382813 9.0625 5.5625 C9.05347656 6.38878906 9.04445313 7.21507812 9.03515625 8.06640625 C9.02355469 8.70449219 9.01195312 9.34257812 9 10 C8.34 10 7.68 10 7 10 C7 7.36 7 4.72 7 2 C5.68 2 4.36 2 3 2 C3 4.64 3 7.28 3 10 C2.01 10 1.02 10 0 10 C0 6.7 0 3.4 0 0 Z " fill="#CCCCCC" transform="translate(844,424)"/>
<path d="M0 0 C6.15234375 -0.09765625 6.15234375 -0.09765625 8 0 C9 1 9 1 9.09765625 3.06640625 C9.08605469 3.89011719 9.07445312 4.71382813 9.0625 5.5625 C9.05347656 6.38878906 9.04445313 7.21507812 9.03515625 8.06640625 C9.02355469 8.70449219 9.01195312 9.34257812 9 10 C8.34 10 7.68 10 7 10 C7 7.36 7 4.72 7 2 C5.68 2 4.36 2 3 2 C3 4.64 3 7.28 3 10 C2.01 10 1.02 10 0 10 C0 6.7 0 3.4 0 0 Z " fill="#D2D2D2" transform="translate(805,424)"/>
<path d="M0 0 C1.32 0 2.64 0 4 0 C4 4.62 4 9.24 4 14 C2.68 14 1.36 14 0 14 C0 9.38 0 4.76 0 0 Z " fill="#2A2100" transform="translate(1068,480)"/>
<path d="M0 0 C0 0.66 0 1.32 0 2 C-1.7015625 2.2165625 -1.7015625 2.2165625 -3.4375 2.4375 C-6.80777201 2.61171478 -6.80777201 2.61171478 -8 4 C-8.16666667 7 -8.16666667 7 -8 10 C-6.03177114 11.96822886 -2.65191291 11.66248381 0 12 C0 12.66 0 13.32 0 14 C-7.32215357 14.36010591 -7.32215357 14.36010591 -10 12.9375 C-11.60856522 9.82090489 -11.42213381 7.43737531 -11 4 C-8.07275826 -0.56649711 -5.15004683 -0.39615745 0 0 Z " fill="#CECECE" transform="translate(1731,30)"/>
<path d="M0 0 C3 1 3 1 4.1875 3.0625 C4.455625 3.701875 4.72375 4.34125 5 5 C5.66 3.35 6.32 1.7 7 0 C7.66 0 8.32 0 9 0 C8.5532538 3.46228308 7.49558815 6.53364208 6.1875 9.75 C5.87167969 10.52859375 5.55585937 11.3071875 5.23046875 12.109375 C4 14 4 14 1.86328125 14.765625 C1.24839844 14.84296875 0.63351562 14.9203125 0 15 C0 14.34 0 13.68 0 13 C0.99 13 1.98 13 3 13 C2.690625 11.783125 2.38125 10.56625 2.0625 9.3125 C1.28842823 6.2217028 0.58737312 3.13265666 0 0 Z " fill="#D2D2D2" transform="translate(723,424)"/>
<path d="M0 0 C0.99 0 1.98 0 3 0 C3 0.99 3 1.98 3 3 C3.66 3 4.32 3 5 3 C5 3.66 5 4.32 5 5 C4.34 5 3.68 5 3 5 C3 6.98 3 8.96 3 11 C3.66 11 4.32 11 5 11 C5 11.66 5 12.32 5 13 C3.35 12.67 1.7 12.34 0 12 C0 9.69 0 7.38 0 5 C-0.66 5 -1.32 5 -2 5 C-2 4.34 -2 3.68 -2 3 C-1.34 3 -0.68 3 0 3 C0 2.01 0 1.02 0 0 Z " fill="#070500" transform="translate(1056,481)"/>
<path d="M0 0 C2.375 -0.125 2.375 -0.125 5 0 C7 2 7 2 7.1953125 3.9453125 C7.13020833 5.96354167 7.06510417 7.98177083 7 10 C5.02 10 3.04 10 1 10 C1.99 9.01 2.98 8.02 4 7 C2.68 6.67 1.36 6.34 0 6 C-0.33 6.99 -0.66 7.98 -1 9 C-0.67 7.35 -0.34 5.7 0 4 C1.65 4 3.3 4 5 4 C5 3.34 5 2.68 5 2 C3.02 2.33 1.04 2.66 -1 3 C-0.67 2.01 -0.34 1.02 0 0 Z " fill="#D0D0D0" transform="translate(835,424)"/>
<path d="M0 0 C2.64 0 5.28 0 8 0 C9.60725635 3.21451269 9.05748185 6.43612536 9 10 C8.34 10 7.68 10 7 10 C6.67 7.69 6.34 5.38 6 3 C5.01 3 4.02 3 3 3 C2.67 5.31 2.34 7.62 2 10 C1.34 10 0.68 10 0 10 C0 6.7 0 3.4 0 0 Z " fill="#E0E0E0" transform="translate(975,424)"/>
<path d="M0 0 C-0.33 2.31 -0.66 4.62 -1 7 C-3.375 7.1875 -3.375 7.1875 -6 7 C-8 4 -8 4 -7.8125 1.875 C-7.544375 1.25625 -7.27625 0.6375 -7 0 C-3.86650268 -1.04449911 -3.01031744 -0.93423645 0 0 Z " fill="#2A2100" transform="translate(1044,487)"/>
<path d="M0 0 C0.99 0 1.98 0 3 0 C3 0.99 3 1.98 3 3 C3.66 3 4.32 3 5 3 C5 3.66 5 4.32 5 5 C4.34 5 3.68 5 3 5 C3 6.98 3 8.96 3 11 C3.66 11 4.32 11 5 11 C5 11.66 5 12.32 5 13 C3.35 12.67 1.7 12.34 0 12 C-0.19573608 10.56359829 -0.38127816 9.12580496 -0.5625 7.6875 C-0.66691406 6.88699219 -0.77132812 6.08648437 -0.87890625 5.26171875 C-1 3 -1 3 0 0 Z " fill="#C4C4C4" transform="translate(678,421)"/>
<path d="M0 0 C0.99 0 1.98 0 3 0 C3 0.99 3 1.98 3 3 C3.66 3 4.32 3 5 3 C5 3.66 5 4.32 5 5 C4.34 5 3.68 5 3 5 C3 6.98 3 8.96 3 11 C3.66 11 4.32 11 5 11 C5 11.66 5 12.32 5 13 C3.35 12.67 1.7 12.34 0 12 C-0.19573608 10.56359829 -0.38127816 9.12580496 -0.5625 7.6875 C-0.66691406 6.88699219 -0.77132812 6.08648437 -0.87890625 5.26171875 C-1 3 -1 3 0 0 Z " fill="#C4C4C4" transform="translate(654,421)"/>
<path d="M0 0 C0.99 0 1.98 0 3 0 C3 0.99 3 1.98 3 3 C3.66 3 4.32 3 5 3 C5 3.66 5 4.32 5 5 C4.34 5 3.68 5 3 5 C3 6.98 3 8.96 3 11 C3.66 11 4.32 11 5 11 C5 11.66 5 12.32 5 13 C3.68 12.67 2.36 12.34 1 12 C0.63597631 10.56496445 0.28413409 9.12683494 -0.0625 7.6875 C-0.25972656 6.88699219 -0.45695313 6.08648437 -0.66015625 5.26171875 C-1 3 -1 3 0 0 Z " fill="#C1C1C1" transform="translate(633,421)"/>
<path d="M0 0 C0.99 0 1.98 0 3 0 C3 4.95 3 9.9 3 15 C2.01 15 1.02 15 0 15 C0 10.05 0 5.1 0 0 Z " fill="#B6B6B6" transform="translate(762,419)"/>
<path d="M0 0 C2.5 0.125 2.5 0.125 3.5 1.125 C3.625 3.625 3.625 3.625 3.5 6.125 C2.5 7.125 2.5 7.125 -0.0625 7.1875 C-1.2690625 7.1565625 -1.2690625 7.1565625 -2.5 7.125 C-2.88133299 5.1335944 -3.21325582 3.13220923 -3.5 1.125 C-2.5 0.125 -2.5 0.125 0 0 Z " fill="#131102" transform="translate(170.5,38.875)"/>
<path d="M0 0 C1.2065625 0.0309375 1.2065625 0.0309375 2.4375 0.0625 C2.4375 0.7225 2.4375 1.3825 2.4375 2.0625 C1.1175 2.0625 -0.2025 2.0625 -1.5625 2.0625 C-1.5625 2.7225 -1.5625 3.3825 -1.5625 4.0625 C-0.2425 4.3925 1.0775 4.7225 2.4375 5.0625 C2.1075 6.7125 1.7775 8.3625 1.4375 10.0625 C-0.5425 10.0625 -2.5225 10.0625 -4.5625 10.0625 C-4.5625 9.4025 -4.5625 8.7425 -4.5625 8.0625 C-2.9125 8.0625 -1.2625 8.0625 0.4375 8.0625 C0.4375 7.4025 0.4375 6.7425 0.4375 6.0625 C-0.8825 5.7325 -2.2025 5.4025 -3.5625 5.0625 C-3.5625 0.08689024 -3.5625 0.08689024 0 0 Z " fill="#C8C8C8" transform="translate(1232.5625,423.9375)"/>
<path d="M0 0 C1.2065625 0.0309375 1.2065625 0.0309375 2.4375 0.0625 C2.4375 0.7225 2.4375 1.3825 2.4375 2.0625 C1.1175 2.0625 -0.2025 2.0625 -1.5625 2.0625 C-1.5625 2.7225 -1.5625 3.3825 -1.5625 4.0625 C-0.2425 4.3925 1.0775 4.7225 2.4375 5.0625 C2.1075 6.7125 1.7775 8.3625 1.4375 10.0625 C-0.5425 10.0625 -2.5225 10.0625 -4.5625 10.0625 C-4.5625 9.4025 -4.5625 8.7425 -4.5625 8.0625 C-2.9125 8.0625 -1.2625 8.0625 0.4375 8.0625 C0.4375 7.4025 0.4375 6.7425 0.4375 6.0625 C-0.8825 5.7325 -2.2025 5.4025 -3.5625 5.0625 C-3.5625 0.08689024 -3.5625 0.08689024 0 0 Z " fill="#C8C8C8" transform="translate(1039.5625,423.9375)"/>
<path d="M0 0 C1.2065625 0.0309375 1.2065625 0.0309375 2.4375 0.0625 C2.4375 0.7225 2.4375 1.3825 2.4375 2.0625 C1.1175 2.0625 -0.2025 2.0625 -1.5625 2.0625 C-1.5625 2.7225 -1.5625 3.3825 -1.5625 4.0625 C-0.2425 4.3925 1.0775 4.7225 2.4375 5.0625 C2.1075 6.7125 1.7775 8.3625 1.4375 10.0625 C-0.5425 10.0625 -2.5225 10.0625 -4.5625 10.0625 C-4.5625 9.4025 -4.5625 8.7425 -4.5625 8.0625 C-2.9125 8.0625 -1.2625 8.0625 0.4375 8.0625 C0.4375 7.4025 0.4375 6.7425 0.4375 6.0625 C-0.8825 5.7325 -2.2025 5.4025 -3.5625 5.0625 C-3.5625 0.08689024 -3.5625 0.08689024 0 0 Z " fill="#C8C8C8" transform="translate(1794.5625,33.9375)"/>
<path d="M0 0 C0.99 0 1.98 0 3 0 C3 4.62 3 9.24 3 14 C2.01 14 1.02 14 0 14 C0 9.38 0 4.76 0 0 Z " fill="#FFFFFF" transform="translate(893,480)"/>
<path d="M0 0 C1.65 0 3.3 0 5 0 C5 0.66 5 1.32 5 2 C3.68 2 2.36 2 1 2 C1 2.66 1 3.32 1 4 C2.32 4.33 3.64 4.66 5 5 C5.5625 6.9375 5.5625 6.9375 6 9 C5 10 5 10 1.9375 10.0625 C0.968125 10.041875 -0.00125 10.02125 -1 10 C-1 9.34 -1 8.68 -1 8 C0.32 7.67 1.64 7.34 3 7 C1.68 6.34 0.36 5.68 -1 5 C-0.67 3.35 -0.34 1.7 0 0 Z " fill="#C7C7C7" transform="translate(1238,424)"/>
<path d="M0 0 C1.65 0 3.3 0 5 0 C5 0.66 5 1.32 5 2 C3.68 2 2.36 2 1 2 C1 2.66 1 3.32 1 4 C2.32 4.33 3.64 4.66 5 5 C5.5625 6.9375 5.5625 6.9375 6 9 C5 10 5 10 1.9375 10.0625 C0.968125 10.041875 -0.00125 10.02125 -1 10 C-1 9.34 -1 8.68 -1 8 C0.32 7.67 1.64 7.34 3 7 C1.68 6.34 0.36 5.68 -1 5 C-0.67 3.35 -0.34 1.7 0 0 Z " fill="#C7C7C7" transform="translate(646,424)"/>
<path d="M0 0 C1.65 0 3.3 0 5 0 C5 0.66 5 1.32 5 2 C3.68 2 2.36 2 1 2 C1 2.66 1 3.32 1 4 C2.32 4.33 3.64 4.66 5 5 C5.5625 6.9375 5.5625 6.9375 6 9 C5 10 5 10 1.9375 10.0625 C0.968125 10.041875 -0.00125 10.02125 -1 10 C-1 9.34 -1 8.68 -1 8 C0.32 7.67 1.64 7.34 3 7 C1.68 6.34 0.36 5.68 -1 5 C-0.67 3.35 -0.34 1.7 0 0 Z " fill="#C7C7C7" transform="translate(1800,34)"/>
<path d="M0 0 C0.05386629 2.12472576 0.09273071 4.24983652 0.125 6.375 C0.14820313 7.55835938 0.17140625 8.74171875 0.1953125 9.9609375 C0 13 0 13 -2 15 C-5.625 15.125 -5.625 15.125 -9 15 C-9 14.34 -9 13.68 -9 13 C-7.865625 12.71125 -6.73125 12.4225 -5.5625 12.125 C-4.386875 11.75375 -3.21125 11.3825 -2 11 C-1.67 10.34 -1.34 9.68 -1 9 C-1.66 8.67 -2.32 8.34 -3 8 C-3 5.69 -3 3.38 -3 1 C-1 0 -1 0 0 0 Z " fill="#EBEBEB" transform="translate(902,424)"/>
<path d="M0 0 C1.32 0 2.64 0 4 0 C4 3.3 4 6.6 4 10 C2.68 10 1.36 10 0 10 C0 6.7 0 3.4 0 0 Z " fill="#2A2100" transform="translate(1049,484)"/>
<path d="M0 0 C1.98 0 3.96 0 6 0 C6 0.99 6 1.98 6 3 C5.01 3.495 5.01 3.495 4 4 C3.34227572 7.02934491 3.34227572 7.02934491 3 10 C2.01 10 1.02 10 0 10 C0 6.7 0 3.4 0 0 Z " fill="#F8FAFE" transform="translate(851,484)"/>
<path d="M0 0 C2.64 0 5.28 0 8 0 C7.360625 0.350625 6.72125 0.70125 6.0625 1.0625 C3.17836168 3.77184206 3.2899178 6.15858911 3 10 C2.01 10 1.02 10 0 10 C0 6.7 0 3.4 0 0 Z " fill="#F8FAFE" transform="translate(899,484)"/>
<path d="M0 0 C1.4540625 0.0309375 1.4540625 0.0309375 2.9375 0.0625 C2.9375 0.7225 2.9375 1.3825 2.9375 2.0625 C1.2875 2.3925 -0.3625 2.7225 -2.0625 3.0625 C-2.0625 4.3825 -2.0625 5.7025 -2.0625 7.0625 C-0.4125 7.3925 1.2375 7.7225 2.9375 8.0625 C2.9375 8.7225 2.9375 9.3825 2.9375 10.0625 C0.0625 10.1875 0.0625 10.1875 -3.0625 10.0625 C-3.7225 9.4025 -4.3825 8.7425 -5.0625 8.0625 C-4.36307389 0.08904232 -4.36307389 0.08904232 0 0 Z " fill="#CDCDCD" transform="translate(1166.0625,423.9375)"/>
<path d="M0 0 C1.2065625 0.0309375 1.2065625 0.0309375 2.4375 0.0625 C2.4375 2.0425 2.4375 4.0225 2.4375 6.0625 C0.78135343 6.44468767 -0.88707024 6.77645102 -2.5625 7.0625 C-3.5625 6.0625 -3.5625 6.0625 -3.6875 3.5625 C-3.51717518 0.15600356 -3.41884482 0.08338646 0 0 Z " fill="#161302" transform="translate(201.5625,38.9375)"/>
<path d="M0 0 C1.32 0.66 2.64 1.32 4 2 C4 4.64 4 7.28 4 10 C2.68 10 1.36 10 0 10 C-0.19412181 8.52168779 -0.38012131 7.04230684 -0.5625 5.5625 C-0.66691406 4.73878906 -0.77132813 3.91507812 -0.87890625 3.06640625 C-0.91886719 2.38449219 -0.95882813 1.70257813 -1 1 C-0.67 0.67 -0.34 0.34 0 0 Z " fill="#251D00" transform="translate(1087,484)"/>
<path d="M0 0 C3.69230769 0.69230769 3.69230769 0.69230769 5 2 C5.1875 4.9375 5.1875 4.9375 5 8 C4.34 8.66 3.68 9.32 3 10 C1.68 10 0.36 10 -1 10 C-1 9.34 -1 8.68 -1 8 C-0.34 7.67 0.32 7.34 1 7 C1 5.68 1 4.36 1 3 C0.34 2.34 -0.32 1.68 -1 1 C-0.67 0.67 -0.34 0.34 0 0 Z " fill="#F2F6FE" transform="translate(813,484)"/>
<path d="M0 0 C0.78375 0.04125 1.5675 0.0825 2.375 0.125 C2.375 0.785 2.375 1.445 2.375 2.125 C0.725 2.455 -0.925 2.785 -2.625 3.125 C-2.625 4.775 -2.625 6.425 -2.625 8.125 C-0.975 8.125 0.675 8.125 2.375 8.125 C2.375 8.785 2.375 9.445 2.375 10.125 C-0.5 10.3125 -0.5 10.3125 -3.625 10.125 C-5.625 7.125 -5.625 7.125 -5.375 4.5625 C-4.336523 1.18744974 -3.59386412 0.17113639 0 0 Z " fill="#D0D0D0" transform="translate(996.625,423.875)"/>
<path d="M0 0 C2.0625 0.4375 2.0625 0.4375 4 1 C4.33 2.65 4.66 4.3 5 6 C2.69 6 0.38 6 -2 6 C-1.125 1.125 -1.125 1.125 0 0 Z " fill="#0E0C01" transform="translate(1046,356)"/>
<path d="M0 0 C1.32 0.66 2.64 1.32 4 2 C4 3.98 4 5.96 4 8 C2.02 8.99 2.02 8.99 0 10 C-0.19412181 8.52168779 -0.38012131 7.04230684 -0.5625 5.5625 C-0.66691406 4.73878906 -0.77132812 3.91507812 -0.87890625 3.06640625 C-0.91886719 2.38449219 -0.95882812 1.70257813 -1 1 C-0.67 0.67 -0.34 0.34 0 0 Z " fill="#E5EDFE" transform="translate(845,484)"/>
<path d="M0 0 C0 0.99 0 1.98 0 3 C-1.65 3 -3.3 3 -5 3 C-5.66 4.98 -6.32 6.96 -7 9 C-7.66 7.68 -8.32 6.36 -9 5 C-9.99 5.495 -9.99 5.495 -11 6 C-8.67640938 -0.47285958 -6.6985661 -0.12404752 0 0 Z " fill="#DCE7FE" transform="translate(806,480)"/>
<path d="M0 0 C1.65 0 3.3 0 5 0 C5.04254356 1.99954746 5.04080783 4.00041636 5 6 C4 7 4 7 0.4375 7.0625 C-0.696875 7.041875 -1.83125 7.02125 -3 7 C-3.66 5.68 -4.32 4.36 -5 3 C-2.36 3.66 0.28 4.32 3 5 C3 4.01 3 3.02 3 2 C2.01 2 1.02 2 0 2 C0 1.34 0 0.68 0 0 Z " fill="#DCDCDC" transform="translate(615,427)"/>
<path d="M0 0 C0.66 0 1.32 0 2 0 C2 0.99 2 1.98 2 3 C2.99 3.33 3.98 3.66 5 4 C4.01 4 3.02 4 2 4 C2 6.31 2 8.62 2 11 C2.99 11 3.98 11 5 11 C5 11.66 5 12.32 5 13 C3.35 12.67 1.7 12.34 0 12 C-0.19573608 10.56359829 -0.38127816 9.12580496 -0.5625 7.6875 C-0.66691406 6.88699219 -0.77132813 6.08648437 -0.87890625 5.26171875 C-1 3 -1 3 0 0 Z " fill="#DFDFDF" transform="translate(1303,421)"/>
<path d="M0 0 C0.66 0 1.32 0 2 0 C2 0.99 2 1.98 2 3 C2.99 3.33 3.98 3.66 5 4 C4.01 4 3.02 4 2 4 C2 6.31 2 8.62 2 11 C2.99 11 3.98 11 5 11 C5 11.66 5 12.32 5 13 C3.35 12.67 1.7 12.34 0 12 C-0.19573608 10.56359829 -0.38127816 9.12580496 -0.5625 7.6875 C-0.66691406 6.88699219 -0.77132813 6.08648437 -0.87890625 5.26171875 C-1 3 -1 3 0 0 Z " fill="#DFDFDF" transform="translate(1138,421)"/>
<path d="M0 0 C0.66 0 1.32 0 2 0 C2 0.99 2 1.98 2 3 C2.99 3.33 3.98 3.66 5 4 C4.01 4 3.02 4 2 4 C2 6.31 2 8.62 2 11 C2.99 11 3.98 11 5 11 C5 11.66 5 12.32 5 13 C3.35 12.67 1.7 12.34 0 12 C-0.19573608 10.56359829 -0.38127816 9.12580496 -0.5625 7.6875 C-0.66691406 6.88699219 -0.77132813 6.08648437 -0.87890625 5.26171875 C-1 3 -1 3 0 0 Z " fill="#DFDFDF" transform="translate(1097,421)"/>
<path d="M0 0 C0.66 0 1.32 0 2 0 C2 0.99 2 1.98 2 3 C2.99 3.33 3.98 3.66 5 4 C4.01 4 3.02 4 2 4 C2 6.31 2 8.62 2 11 C2.99 11 3.98 11 5 11 C5 11.66 5 12.32 5 13 C3.35 12.67 1.7 12.34 0 12 C-0.19573608 10.56359829 -0.38127816 9.12580496 -0.5625 7.6875 C-0.66691406 6.88699219 -0.77132812 6.08648437 -0.87890625 5.26171875 C-1 3 -1 3 0 0 Z " fill="#DFDFDF" transform="translate(947,421)"/>
<path d="M0 0 C2.0625 0.4375 2.0625 0.4375 4 1 C4.33 2.65 4.66 4.3 5 6 C2.69 6 0.38 6 -2 6 C-1.125 1.125 -1.125 1.125 0 0 Z " fill="#0C0C0C" transform="translate(855,356)"/>
<path d="M0 0 C0.66 0 1.32 0 2 0 C2 0.99 2 1.98 2 3 C2.99 3.33 3.98 3.66 5 4 C4.01 4 3.02 4 2 4 C2 6.31 2 8.62 2 11 C2.99 11 3.98 11 5 11 C5 11.66 5 12.32 5 13 C3.35 12.67 1.7 12.34 0 12 C-0.19573608 10.56359829 -0.38127816 9.12580496 -0.5625 7.6875 C-0.66691406 6.88699219 -0.77132813 6.08648437 -0.87890625 5.26171875 C-1 3 -1 3 0 0 Z " fill="#DFDFDF" transform="translate(1875,31)"/>
<path d="M0 0 C1.2065625 0.0309375 1.2065625 0.0309375 2.4375 0.0625 C2.4375 2.0425 2.4375 4.0225 2.4375 6.0625 C0.7875 6.0625 -0.8625 6.0625 -2.5625 6.0625 C-2.94468767 4.40635343 -3.27645102 2.73792976 -3.5625 1.0625 C-2.5625 0.0625 -2.5625 0.0625 0 0 Z " fill="#0A0A0A" transform="translate(1017.5625,425.9375)"/>
<path d="M0 0 C1.98 0 3.96 0 6 0 C5.34 0.66 4.68 1.32 4 2 C3.54188325 3.97235333 3.54188325 3.97235333 3.375 6.125 C3.25125 7.40375 3.1275 8.6825 3 10 C2.01 10 1.02 10 0 10 C0 6.7 0 3.4 0 0 Z " fill="#BEBEBE" transform="translate(1211,424)"/>
<path d="M0 0 C2.125 0.9375 2.125 0.9375 4 2 C4 3.32 4 4.64 4 6 C1.69 6 -0.62 6 -3 6 C-2.625 3.5625 -2.625 3.5625 -2 1 C-1.34 0.67 -0.68 0.34 0 0 Z " fill="#0B0B0B" transform="translate(679,356)"/>
<path d="M0 0 C1.98 0 3.96 0 6 0 C5.34 0.66 4.68 1.32 4 2 C3.54188325 3.97235333 3.54188325 3.97235333 3.375 6.125 C3.25125 7.40375 3.1275 8.6825 3 10 C2.01 10 1.02 10 0 10 C0 6.7 0 3.4 0 0 Z " fill="#C0C0C0" transform="translate(1773,34)"/>
<path d="M0 0 C1.67542976 0.28604898 3.34385343 0.61781233 5 1 C4.34 2.65 3.68 4.3 3 6 C1.35 5.67 -0.3 5.34 -2 5 C-1.125 1.125 -1.125 1.125 0 0 Z " fill="#3B2E00" transform="translate(1094,488)"/>
<path d="M0 0 C0.66 0 1.32 0 2 0 C2 1.98 2 3.96 2 6 C2.66 6.33 3.32 6.66 4 7 C3.67 7.33 3.34 7.66 3 8 C2.63239269 10.32817964 2.29758419 12.6618385 2 15 C1.34 15 0.68 15 0 15 C0 10.05 0 5.1 0 0 Z " fill="#D7D7D7" transform="translate(712,419)"/>
<path d="M0 0 C1.65 0.33 3.3 0.66 5 1 C4.67 2.65 4.34 4.3 4 6 C2.35 5.67 0.7 5.34 -1 5 C-0.67 3.35 -0.34 1.7 0 0 Z " fill="#030303" transform="translate(1254,426)"/>
<path d="M0 0 C1.65 0 3.3 0 5 0 C5 1.98 5 3.96 5 6 C3.35 6 1.7 6 0 6 C-1.125 2.25 -1.125 2.25 0 0 Z " fill="#060606" transform="translate(1173,426)"/>
<path d="M0 0 C1.65 0.33 3.3 0.66 5 1 C4.67 2.65 4.34 4.3 4 6 C2.35 5.67 0.7 5.34 -1 5 C-0.67 3.35 -0.34 1.7 0 0 Z " fill="#030303" transform="translate(1147,426)"/>
<path d="M0 0 C1.65 0 3.3 0 5 0 C6.125 3.75 6.125 3.75 5 6 C3.35 6 1.7 6 0 6 C0 4.02 0 2.04 0 0 Z " fill="#060606" transform="translate(1026,426)"/>
<path d="M0 0 C1.65 0 3.3 0 5 0 C6.125 3.75 6.125 3.75 5 6 C3.35 6 1.7 6 0 6 C0 4.02 0 2.04 0 0 Z " fill="#060606" transform="translate(769,426)"/>
<path d="M0 0 C0.66 0 1.32 0 2 0 C2 4.95 2 9.9 2 15 C1.34 15 0.68 15 0 15 C-0.75612577 9.76528314 -1.2063366 5.22745859 0 0 Z " fill="#E9E9E9" transform="translate(1293,419)"/>
<path d="M0 0 C1.65 0 3.3 0 5 0 C5 1.98 5 3.96 5 6 C3.35 6 1.7 6 0 6 C-1.125 2.25 -1.125 2.25 0 0 Z " fill="#060606" transform="translate(1735,36)"/>
<path d="M0 0 C1.65 0 3.3 0 5 0 C5 1.98 5 3.96 5 6 C3.35 6 1.7 6 0 6 C-1.125 2.25 -1.125 2.25 0 0 Z " fill="#060606" transform="translate(1643,36)"/>
<path d="M0 0 C0.66 0 1.32 0 2 0 C2 4.95 2 9.9 2 15 C1.34 15 0.68 15 0 15 C-0.75612577 9.76528314 -1.2063366 5.22745859 0 0 Z " fill="#E9E9E9" transform="translate(1865,29)"/>
<path d="M0 0 C1.98 0 3.96 0 6 0 C5.505 0.37125 5.01 0.7425 4.5 1.125 C2.40244486 3.74694393 2.78256165 5.73842472 3 9 C2.34 9 1.68 9 1 9 C1 10.98 1 12.96 1 15 C0.67 15 0.34 15 0 15 C0 10.05 0 5.1 0 0 Z " fill="#EFEFEF" transform="translate(1200,424)"/>
<path d="M0 0 C1.67542976 0.28604898 3.34385343 0.61781233 5 1 C4.67 2.65 4.34 4.3 4 6 C2.68 6 1.36 6 0 6 C-0.38218767 4.34385343 -0.71395102 2.67542976 -1 1 C-0.67 0.67 -0.34 0.34 0 0 Z " fill="#070707" transform="translate(819,426)"/>
<path d="M0 0 C1.2065625 0.0309375 1.2065625 0.0309375 2.4375 0.0625 C2.1075 1.7125 1.7775 3.3625 1.4375 5.0625 C0.1175 5.3925 -1.2025 5.7225 -2.5625 6.0625 C-2.94468767 4.40635343 -3.27645102 2.73792976 -3.5625 1.0625 C-2.5625 0.0625 -2.5625 0.0625 0 0 Z " fill="#050400" transform="translate(1104.5625,366.9375)"/>
<path d="M0 0 C1.65 0.33 3.3 0.66 5 1 C4.67 2.65 4.34 4.3 4 6 C2.68 6 1.36 6 0 6 C-1.125 2.25 -1.125 2.25 0 0 Z " fill="#030303" transform="translate(1288,426)"/>
<path d="M0 0 C1.32 0 2.64 0 4 0 C4.33 2.64 4.66 5.28 5 8 C3.35 7.67 1.7 7.34 0 7 C0 4.69 0 2.38 0 0 Z " fill="#0E0E0E" transform="translate(1140,425)"/>
<path d="M0 0 C1.65 0.33 3.3 0.66 5 1 C4.67 2.65 4.34 4.3 4 6 C2.68 6 1.36 6 0 6 C-1.125 2.25 -1.125 2.25 0 0 Z " fill="#030303" transform="translate(1860,36)"/>
<path d="M0 0 C1.32 0 2.64 0 4 0 C4 2.97 4 5.94 4 9 C3.01 9 2.02 9 1 9 C0.67 6.03 0.34 3.06 0 0 Z " fill="#F9FBFE" transform="translate(832,485)"/>
<path d="M0 0 C1.32 0 2.64 0 4 0 C4 1.98 4 3.96 4 6 C2.35 6 0.7 6 -1 6 C-1.042721 4.33388095 -1.04063832 2.66617115 -1 1 C-0.67 0.67 -0.34 0.34 0 0 Z " fill="#090909" transform="translate(1203,426)"/>
<path d="M0 0 C1.32 0 2.64 0 4 0 C4 2.64 4 5.28 4 8 C2.68 7.67 1.36 7.34 0 7 C0 4.69 0 2.38 0 0 Z " fill="#0C0C0C" transform="translate(1099,425)"/>
<path d="M0 0 C1.32 0 2.64 0 4 0 C4 2.64 4 5.28 4 8 C2.68 7.67 1.36 7.34 0 7 C0 4.69 0 2.38 0 0 Z " fill="#0C0C0C" transform="translate(949,425)"/>
<path d="M0 0 C1.32 0 2.64 0 4 0 C4 1.98 4 3.96 4 6 C2.35 6 0.7 6 -1 6 C-1.042721 4.33388095 -1.04063832 2.66617115 -1 1 C-0.67 0.67 -0.34 0.34 0 0 Z " fill="#080808" transform="translate(896,426)"/>
<path d="M0 0 C1.65 0 3.3 0 5 0 C5 1.65 5 3.3 5 5 C3.35 5.33 1.7 5.66 0 6 C0 4.02 0 2.04 0 0 Z " fill="#070707" transform="translate(791,426)"/>
<path d="M0 0 C1.65 0 3.3 0 5 0 C5 1.65 5 3.3 5 5 C3.35 5.33 1.7 5.66 0 6 C0 4.02 0 2.04 0 0 Z " fill="#080808" transform="translate(753,426)"/>
<path d="M0 0 C1.65 0 3.3 0 5 0 C5 1.65 5 3.3 5 5 C3.35 5.33 1.7 5.66 0 6 C0 4.02 0 2.04 0 0 Z " fill="#070707" transform="translate(697,426)"/>
<path d="M0 0 C1.65 0 3.3 0 5 0 C5 1.65 5 3.3 5 5 C3.35 5.33 1.7 5.66 0 6 C0 4.02 0 2.04 0 0 Z " fill="#080808" transform="translate(1764,36)"/>
<path d="M0 0 C0.66 0 1.32 0 2 0 C3.60725635 3.21451269 3.05748185 6.43612536 3 10 C2.01 10 1.02 10 0 10 C0 6.7 0 3.4 0 0 Z " fill="#BABABA" transform="translate(805,424)"/>
<path d="M0 0 C2.475 0.495 2.475 0.495 5 1 C4.67 2.65 4.34 4.3 4 6 C2.68 6 1.36 6 0 6 C0 4.02 0 2.04 0 0 Z " fill="#030303" transform="translate(715,426)"/>
<path d="M0 0 C1.98 0 3.96 0 6 0 C6 1.32 6 2.64 6 4 C4.02 4 2.04 4 0 4 C0 2.68 0 1.36 0 0 Z " fill="#8A8A8A" transform="translate(624,424)"/>
<path d="M0 0 C1.99954746 -0.04254356 4.00041636 -0.04080783 6 0 C7 1 7 1 7.09765625 3.06640625 C7.08605469 3.89011719 7.07445312 4.71382813 7.0625 5.5625 C7.05347656 6.38878906 7.04445313 7.21507812 7.03515625 8.06640625 C7.01775391 9.02353516 7.01775391 9.02353516 7 10 C6.34 9.01 5.68 8.02 5 7 C5.33 6.34 5.66 5.68 6 5 C5.01 4.67 4.02 4.34 3 4 C3.66 4 4.32 4 5 4 C5 3.34 5 2.68 5 2 C3.35 2.33 1.7 2.66 0 3 C0 2.01 0 1.02 0 0 Z " fill="#DFDFDF" transform="translate(661,424)"/>
<path d="M0 0 C1.98 0 3.96 0 6 0 C6 1.32 6 2.64 6 4 C4.02 4 2.04 4 0 4 C0 2.68 0 1.36 0 0 Z " fill="#8A8A8A" transform="translate(1671,34)"/>
<path d="M0 0 C0 0.66 0 1.32 0 2 C-1.093125 2.04125 -2.18625 2.0825 -3.3125 2.125 C-7.24996333 2.60565398 -7.24996333 2.60565398 -8.9375 6.0625 C-9.288125 7.031875 -9.63875 8.00125 -10 9 C-10.33 9 -10.66 9 -11 9 C-10.6875 5.625 -10.6875 5.625 -10 2 C-6.3558226 -0.4294516 -4.28758728 -0.16179575 0 0 Z " fill="#DBDBDB" transform="translate(1731,30)"/>
<path d="M0 0 C1.99954746 -0.04254356 4.00041636 -0.04080783 6 0 C7 1 7 1 7.09765625 3.06640625 C7.08605469 3.89011719 7.07445312 4.71382813 7.0625 5.5625 C7.05347656 6.38878906 7.04445313 7.21507812 7.03515625 8.06640625 C7.02355469 8.70449219 7.01195312 9.34257812 7 10 C6.34 9.67 5.68 9.34 5 9 C5 6.69 5 4.38 5 2 C3.02 2.33 1.04 2.66 -1 3 C-0.67 2.01 -0.34 1.02 0 0 Z " fill="#CACACA" transform="translate(884,424)"/>
<path d="M0 0 C2.5625 0.1875 2.5625 0.1875 4.5625 2.1875 C4.2325 3.1775 3.9025 4.1675 3.5625 5.1875 C0.5925 4.6925 0.5925 4.6925 -2.4375 4.1875 C-2.7675 3.1975 -3.0975 2.2075 -3.4375 1.1875 C-2.4375 0.1875 -2.4375 0.1875 0 0 Z " fill="#8E8E8E" transform="translate(1279.4375,423.8125)"/>
<path d="M0 0 C2.5625 0.1875 2.5625 0.1875 4.5625 2.1875 C4.2325 3.1775 3.9025 4.1675 3.5625 5.1875 C0.5925 4.6925 0.5925 4.6925 -2.4375 4.1875 C-2.7675 3.1975 -3.0975 2.2075 -3.4375 1.1875 C-2.4375 0.1875 -2.4375 0.1875 0 0 Z " fill="#8E8E8E" transform="translate(1118.4375,423.8125)"/>
<path d="M0 0 C2.5625 0.1875 2.5625 0.1875 4.5625 2.1875 C4.2325 3.1775 3.9025 4.1675 3.5625 5.1875 C0.5925 4.6925 0.5925 4.6925 -2.4375 4.1875 C-2.7675 3.1975 -3.0975 2.2075 -3.4375 1.1875 C-2.4375 0.1875 -2.4375 0.1875 0 0 Z " fill="#8E8E8E" transform="translate(968.4375,423.8125)"/>
<path d="M0 0 C2.5625 0.1875 2.5625 0.1875 4.5625 2.1875 C4.2325 3.1775 3.9025 4.1675 3.5625 5.1875 C0.5925 4.6925 0.5925 4.6925 -2.4375 4.1875 C-2.7675 3.1975 -3.0975 2.2075 -3.4375 1.1875 C-2.4375 0.1875 -2.4375 0.1875 0 0 Z " fill="#8E8E8E" transform="translate(688.4375,423.8125)"/>
<path d="M0 0 C1.66611905 -0.042721 3.33382885 -0.04063832 5 0 C6 1 6 1 6.09765625 3.06640625 C6.08605469 3.89011719 6.07445312 4.71382813 6.0625 5.5625 C6.05347656 6.38878906 6.04445313 7.21507812 6.03515625 8.06640625 C6.01775391 9.02353516 6.01775391 9.02353516 6 10 C5.67 10 5.34 10 5 10 C5 8.35 5 6.7 5 5 C4.01 4.67 3.02 4.34 2 4 C2.66 4 3.32 4 4 4 C4 3.34 4 2.68 4 2 C2.35 2.33 0.7 2.66 -1 3 C-0.67 2.01 -0.34 1.02 0 0 Z " fill="#E0E0E0" transform="translate(780,424)"/>
<path d="M0 0 C1.98 0 3.96 0 6 0 C4.02 0.99 4.02 0.99 2 2 C2 4.64 2 7.28 2 10 C1.34 10 0.68 10 0 10 C0 6.7 0 3.4 0 0 Z " fill="#E4E4E4" transform="translate(1263,424)"/>
<path d="M0 0 C1.98 0 3.96 0 6 0 C4.02 0.99 4.02 0.99 2 2 C2 4.64 2 7.28 2 10 C1.34 10 0.68 10 0 10 C0 6.7 0 3.4 0 0 Z " fill="#E4E4E4" transform="translate(1125,424)"/>
<path d="M0 0 C1.2065625 0.0309375 1.2065625 0.0309375 2.4375 0.0625 C2.7675 0.7225 3.0975 1.3825 3.4375 2.0625 C3.1075 2.7225 2.7775 3.3825 2.4375 4.0625 C0.4575 4.0625 -1.5225 4.0625 -3.5625 4.0625 C-3.5625 0.08689024 -3.5625 0.08689024 0 0 Z " fill="#8B8B8B" transform="translate(1090.5625,423.9375)"/>
<path d="M0 0 C1.2065625 0.0309375 1.2065625 0.0309375 2.4375 0.0625 C2.7675 0.7225 3.0975 1.3825 3.4375 2.0625 C3.1075 2.7225 2.7775 3.3825 2.4375 4.0625 C0.4575 4.0625 -1.5225 4.0625 -3.5625 4.0625 C-3.5625 0.08689024 -3.5625 0.08689024 0 0 Z " fill="#8B8B8B" transform="translate(909.5625,423.9375)"/>
<path d="M0 0 C1.65 0 3.3 0 5 0 C4.34 0.66 3.68 1.32 3 2 C2.54188325 3.97235333 2.54188325 3.97235333 2.375 6.125 C2.25125 7.40375 2.1275 8.6825 2 10 C1.34 10 0.68 10 0 10 C0 6.7 0 3.4 0 0 Z " fill="#EBEBEB" transform="translate(671,424)"/>
<path d="M0 0 C0.66 0 1.32 0 2 0 C2.1953125 2.01822917 2.390625 4.03645833 2.5859375 6.0546875 C2.86374749 8.22668245 2.86374749 8.22668245 5 10 C3.35 9.67 1.7 9.34 0 9 C0 6.03 0 3.06 0 0 Z " fill="#D9D9D9" transform="translate(739,424)"/>
<path d="M0 0 C0.99 0 1.98 0 3 0 C3 1.98 3 3.96 3 6 C1.68 5.67 0.36 5.34 -1 5 C-0.67 3.35 -0.34 1.7 0 0 Z " fill="#D9AA00" transform="translate(1107,486)"/>
<path d="M0 0 C1.32 0.33 2.64 0.66 4 1 C3.67 2.65 3.34 4.3 3 6 C2.01 6 1.02 6 0 6 C0 4.02 0 2.04 0 0 Z " fill="#DFAF00" transform="translate(1040,486)"/>
<path d="M0 0 C1.32 0.33 2.64 0.66 4 1 C4 3.97 4 6.94 4 10 C3.34 10 2.68 10 2 10 C1.77213542 7.98177083 1.54427083 5.96354167 1.31640625 3.9453125 C1.08707039 1.92595684 1.08707039 1.92595684 0 0 Z " fill="#DADADA" transform="translate(1193,424)"/>
<path d="M0 0 C1.32 0.33 2.64 0.66 4 1 C4 3.97 4 6.94 4 10 C3.34 10 2.68 10 2 10 C1.77213542 7.98177083 1.54427083 5.96354167 1.31640625 3.9453125 C1.08707039 1.92595684 1.08707039 1.92595684 0 0 Z " fill="#DADADA" transform="translate(1755,34)"/>
<path d="M0 0 C1.32 0.33 2.64 0.66 4 1 C4 3.97 4 6.94 4 10 C3.34 10 2.68 10 2 10 C1.77213542 7.98177083 1.54427083 5.96354167 1.31640625 3.9453125 C1.08707039 1.92595684 1.08707039 1.92595684 0 0 Z " fill="#DADADA" transform="translate(1663,34)"/>
<path d="M0 0 C0 3.96 0 7.92 0 12 C-0.33 12 -0.66 12 -1 12 C-1.02578125 11.37351562 -1.0515625 10.74703125 -1.078125 10.1015625 C-1.13484375 9.28429687 -1.1915625 8.46703125 -1.25 7.625 C-1.29640625 6.81289063 -1.3428125 6.00078125 -1.390625 5.1640625 C-1.7922092 2.81161073 -1.7922092 2.81161073 -4.046875 1.7109375 C-4.69140625 1.47632813 -5.3359375 1.24171875 -6 1 C-4 0 -4 0 0 0 Z " fill="#C9C9C9" transform="translate(826,424)"/>
<path d="M0 0 C0.99 0.33 1.98 0.66 3 1 C2.67 2.65 2.34 4.3 2 6 C1.01 5.67 0.02 5.34 -1 5 C-0.67 3.35 -0.34 1.7 0 0 Z " fill="#2C6DFC" transform="translate(932,486)"/>
<path d="M0 0 C0.99 0.33 1.98 0.66 3 1 C2.67 2.65 2.34 4.3 2 6 C1.01 5.67 0.02 5.34 -1 5 C-0.67 3.35 -0.34 1.7 0 0 Z " fill="#1F64FC" transform="translate(812,486)"/>
<path d="M0 0 C0.99 0 1.98 0 3 0 C2.67 1.65 2.34 3.3 2 5 C0.02 5 -1.96 5 -4 5 C-4 4.34 -4 3.68 -4 3 C-2.35 3 -0.7 3 1 3 C0.67 2.01 0.34 1.02 0 0 Z " fill="#CECECE" transform="translate(1232,429)"/>
<path d="M0 0 C0.99 0 1.98 0 3 0 C2.67 1.65 2.34 3.3 2 5 C0.02 5 -1.96 5 -4 5 C-4 4.34 -4 3.68 -4 3 C-2.35 3 -0.7 3 1 3 C0.67 2.01 0.34 1.02 0 0 Z " fill="#CECECE" transform="translate(1039,429)"/>
<path d="M0 0 C0.99 0.33 1.98 0.66 3 1 C3.73046875 3.06640625 3.73046875 3.06640625 4.1875 5.5625 C4.34605469 6.38878906 4.50460937 7.21507812 4.66796875 8.06640625 C4.77753906 8.70449219 4.88710937 9.34257812 5 10 C4.34 10 3.68 10 3 10 C2.49596232 8.70990357 1.99690074 7.41786211 1.5 6.125 C1.2215625 5.40570313 0.943125 4.68640625 0.65625 3.9453125 C0 2 0 2 0 0 Z " fill="#D4D4D4" transform="translate(1059,424)"/>
<path d="M0 0 C1.65 0 3.3 0 5 0 C5.33 0.66 5.66 1.32 6 2 C5.67 2.66 5.34 3.32 5 4 C3.35 4 1.7 4 0 4 C0 2.68 0 1.36 0 0 Z " fill="#727272" transform="translate(1220,424)"/>
<path d="M0 0 C1.65 0 3.3 0 5 0 C5.33 0.66 5.66 1.32 6 2 C5.67 2.66 5.34 3.32 5 4 C3.35 4 1.7 4 0 4 C0 2.68 0 1.36 0 0 Z " fill="#727272" transform="translate(1046,424)"/>
<path d="M0 0 C0.99 0 1.98 0 3 0 C3 0.99 3 1.98 3 3 C2.34 3 1.68 3 1 3 C1 5.97 1 8.94 1 12 C0.67 12 0.34 12 0 12 C-0.19573608 10.56359829 -0.38127816 9.12580496 -0.5625 7.6875 C-0.66691406 6.88699219 -0.77132812 6.08648437 -0.87890625 5.26171875 C-1 3 -1 3 0 0 Z " fill="#AEAEAE" transform="translate(678,421)"/>
<path d="M0 0 C0.99 0 1.98 0 3 0 C3 0.99 3 1.98 3 3 C2.34 3 1.68 3 1 3 C1 5.97 1 8.94 1 12 C0.67 12 0.34 12 0 12 C-0.19573608 10.56359829 -0.38127816 9.12580496 -0.5625 7.6875 C-0.66691406 6.88699219 -0.77132812 6.08648437 -0.87890625 5.26171875 C-1 3 -1 3 0 0 Z " fill="#AEAEAE" transform="translate(654,421)"/>
<path d="M0 0 C0.99 0 1.98 0 3 0 C2.67 1.65 2.34 3.3 2 5 C0.02 5 -1.96 5 -4 5 C-4 4.34 -4 3.68 -4 3 C-2.35 3 -0.7 3 1 3 C0.67 2.01 0.34 1.02 0 0 Z " fill="#CECECE" transform="translate(1794,39)"/>
<path d="M0 0 C1.65 0 3.3 0 5 0 C5.33 0.66 5.66 1.32 6 2 C5.67 2.66 5.34 3.32 5 4 C3.35 4 1.7 4 0 4 C0 2.68 0 1.36 0 0 Z " fill="#727272" transform="translate(1782,34)"/>
<path d="M0 0 C0.66 0 1.32 0 2 0 C2 2.31 2 4.62 2 7 C1.01 7.495 1.01 7.495 0 8 C-1.125 2.25 -1.125 2.25 0 0 Z " fill="#BBBBBB" transform="translate(609,423)"/>
<path d="M0 0 C0.33 0 0.66 0 1 0 C1 1.65 1 3.3 1 5 C2.65 5 4.3 5 6 5 C6.33 6.32 6.66 7.64 7 9 C4.69 8.01 2.38 7.02 0 6 C0 4.02 0 2.04 0 0 Z " fill="#B2B2B2" transform="translate(714,419)"/>
<path d="M0 0 C0.99 0.33 1.98 0.66 3 1 C2.34 2.65 1.68 4.3 1 6 C0.34 5.34 -0.32 4.68 -1 4 C-1.66 4.99 -2.32 5.98 -3 7 C-2.25 2.25 -2.25 2.25 0 0 Z " fill="#D8E4FE" transform="translate(810,484)"/>
<path d="M0 0 C-2 2 -2 2 -5.625 2.125 C-6.73875 2.08375 -7.8525 2.0425 -9 2 C-9 1.34 -9 0.68 -9 0 C-3.375 -1.125 -3.375 -1.125 0 0 Z " fill="#CBCBCB" transform="translate(902,437)"/>
<path d="M0 0 C-0.33 0.99 -0.66 1.98 -1 3 C-2.32 3 -3.64 3 -5 3 C-5.33 2.01 -5.66 1.02 -6 0 C-3.50907189 -1.24546405 -2.58919267 -0.7767578 0 0 Z " fill="#767676" transform="translate(889,429)"/>
<path d="M0 0 C0.33 0 0.66 0 1 0 C1 1.98 1 3.96 1 6 C-0.98 6.99 -0.98 6.99 -3 8 C-3.66 7.34 -4.32 6.68 -5 6 C-4.01 5.67 -3.02 5.34 -2 5 C-0.78130071 2.49552484 -0.78130071 2.49552484 0 0 Z " fill="#C2C2C2" transform="translate(1260,426)"/>
<path d="M0 0 C0.33 0 0.66 0 1 0 C1 1.98 1 3.96 1 6 C-0.98 6.99 -0.98 6.99 -3 8 C-3.66 7.34 -4.32 6.68 -5 6 C-4.01 5.67 -3.02 5.34 -2 5 C-0.78130071 2.49552484 -0.78130071 2.49552484 0 0 Z " fill="#C2C2C2" transform="translate(1153,426)"/>
<path d="M0 0 C1.65 0 3.3 0 5 0 C5 0.66 5 1.32 5 2 C3.68 2 2.36 2 1 2 C1.33 2.99 1.66 3.98 2 5 C1.01 5 0.02 5 -1 5 C-0.67 3.35 -0.34 1.7 0 0 Z " fill="#D6D6D6" transform="translate(1238,424)"/>
<path d="M0 0 C1.65 0 3.3 0 5 0 C5 0.66 5 1.32 5 2 C3.68 2 2.36 2 1 2 C1.33 2.99 1.66 3.98 2 5 C1.01 5 0.02 5 -1 5 C-0.67 3.35 -0.34 1.7 0 0 Z " fill="#D6D6D6" transform="translate(646,424)"/>
<path d="M0 0 C1.65 0 3.3 0 5 0 C5 0.66 5 1.32 5 2 C3.68 2 2.36 2 1 2 C1.33 2.99 1.66 3.98 2 5 C1.01 5 0.02 5 -1 5 C-0.67 3.35 -0.34 1.7 0 0 Z " fill="#D6D6D6" transform="translate(1800,34)"/>
<path d="M0 0 C0.66 0.99 1.32 1.98 2 3 C1 4 1 4 -2.5625 4.0625 C-3.696875 4.041875 -4.83125 4.02125 -6 4 C-6 3.34 -6 2.68 -6 2 C-4.02 2 -2.04 2 0 2 C0 1.34 0 0.68 0 0 Z " fill="#CACACA" transform="translate(823,435)"/>
<path d="M0 0 C0.66 0.33 1.32 0.66 2 1 C1.67 1.33 1.34 1.66 1 2 C2.65 2.33 4.3 2.66 6 3 C6 3.33 6 3.66 6 4 C3.36 4.33 0.72 4.66 -2 5 C-2 3.68 -2 2.36 -2 1 C-1.34 0.67 -0.68 0.34 0 0 Z " fill="#A38E14" transform="translate(120,35)"/>
</svg>
